<?xml version="1.0" encoding="UTF-8"?>
<svg xmlns="http://www.w3.org/2000/svg" xmlns:xlink="http://www.w3.org/1999/xlink"
     width="100" height="50" viewBox="-50.0 -25.0 100 50">
<defs>
<path d="M0,0 L3.0,1.7320508075688772 L0.0,3.464101615137755 Z" id="d0" />
<path d="M1.5,3.013768405169847 L1.8599999999999999,2.3902301144450506 L1.1400000000000001,2.3902301144450506" id="d1" />
<path d="M0,0 L1.0,0.0 L1.5,-0.8660254037844386 L3.0,-1.1102230246251565e-16 L3.0,1.7320508075688772 L4.0,1.7320508075688772 L4.5,2.598076211353316 L3.0,3.4641016151377544 L1.4999999999999998,2.598076211353316 L1.0,3.464101615137755 L0.0,3.464101615137755 L-1.0,3.464101615137755 L-1.5000000000000004,2.5980762113533165 L-1.1102230246251565e-15,1.7320508075688772 L-1.4283955962426286e-15,0.0 Z" id="d2" />
<path d="M0,0 L3.0,1.7320508075688772 L0.0,3.464101615137755 Z" id="d3" />
<path d="M1.5,3.013768405169847 L1.8599999999999999,2.3902301144450506 L1.1400000000000001,2.3902301144450506" id="d4" />
<path d="M0,0 L1.0,0.0 L1.5,-0.8660254037844386 L3.0,-1.1102230246251565e-16 L3.0,1.7320508075688772 L4.0,1.7320508075688772 L4.5,2.598076211353316 L3.0,3.4641016151377544 L1.4999999999999998,2.598076211353316 L1.0,3.464101615137755 L0.0,3.464101615137755 L-1.0,3.464101615137755 L-1.5000000000000004,2.5980762113533165 L-1.1102230246251565e-15,1.7320508075688772 L-1.4283955962426286e-15,0.0 Z" id="d5" />
<path d="M0,0 L3.0,1.7320508075688772 L0.0,3.464101615137755 Z" id="d6" />
<path d="M1.5,3.013768405169847 L1.8599999999999999,2.3902301144450506 L1.1400000000000001,2.3902301144450506" id="d7" />
<path d="M0,0 L1.0,0.0 L1.5,-0.8660254037844386 L3.0,-1.1102230246251565e-16 L3.0,1.7320508075688772 L4.0,1.7320508075688772 L4.5,2.598076211353316 L3.0,3.4641016151377544 L1.4999999999999998,2.598076211353316 L1.0,3.464101615137755 L0.0,3.464101615137755 L-1.0,3.464101615137755 L-1.5000000000000004,2.5980762113533165 L-1.1102230246251565e-15,1.7320508075688772 L-1.4283955962426286e-15,0.0 Z" id="d8" />
<path d="M0,0 L3.0,1.7320508075688772 L0.0,3.464101615137755 Z" id="d9" />
<path d="M1.5,3.013768405169847 L1.8599999999999999,2.3902301144450506 L1.1400000000000001,2.3902301144450506" id="d10" />
<path d="M0,0 L1.0,0.0 L1.5,-0.8660254037844386 L3.0,-1.1102230246251565e-16 L3.0,1.7320508075688772 L4.0,1.7320508075688772 L4.5,2.598076211353316 L3.0,3.4641016151377544 L1.4999999999999998,2.598076211353316 L1.0,3.464101615137755 L0.0,3.464101615137755 L-1.0,3.464101615137755 L-1.5000000000000004,2.5980762113533165 L-1.1102230246251565e-15,1.7320508075688772 L-1.4283955962426286e-15,0.0 Z" id="d11" />
<path d="M0,0 L3.0,1.7320508075688772 L0.0,3.464101615137755 Z" id="d12" />
<path d="M1.5,3.013768405169847 L1.8599999999999999,2.3902301144450506 L1.1400000000000001,2.3902301144450506" id="d13" />
<path d="M0,0 L1.0,0.0 L1.5,-0.8660254037844386 L3.0,-1.1102230246251565e-16 L3.0,1.7320508075688772 L4.0,1.7320508075688772 L4.5,2.598076211353316 L3.0,3.4641016151377544 L1.4999999999999998,2.598076211353316 L1.0,3.464101615137755 L0.0,3.464101615137755 L-1.0,3.464101615137755 L-1.5000000000000004,2.5980762113533165 L-1.1102230246251565e-15,1.7320508075688772 L-1.4283955962426286e-15,0.0 Z" id="d14" />
<path d="M0,0 L3.0,1.7320508075688772 L0.0,3.464101615137755 Z" id="d15" />
<path d="M1.5,3.013768405169847 L1.8599999999999999,2.3902301144450506 L1.1400000000000001,2.3902301144450506" id="d16" />
<path d="M0,0 L1.0,0.0 L1.5,-0.8660254037844386 L3.0,-1.1102230246251565e-16 L3.0,1.7320508075688772 L4.0,1.7320508075688772 L4.5,2.598076211353316 L3.0,3.4641016151377544 L1.4999999999999998,2.598076211353316 L1.0,3.464101615137755 L0.0,3.464101615137755 L-1.0,3.464101615137755 L-1.5000000000000004,2.5980762113533165 L-1.1102230246251565e-15,1.7320508075688772 L-1.4283955962426286e-15,0.0 Z" id="d17" />
<path d="M0,0 L3.464101615137755,2.220446049250313e-16 L1.732050807568879,3.0 Z" id="d18" />
<path d="M2.8059223082615823,1.8599999999999999 L2.805922308261582,1.1400000000000001 L2.182384017536786,1.5" id="d19" />
<path d="M0,0 L1.7320508075688772,0.0 L2.598076211353316,-1.4999999999999998 L3.464101615137755,-0.9999999999999998 L3.464101615137755,2.220446049250313e-16 L5.196152422706632,2.220446049250313e-16 L6.062177826491071,1.5 L5.196152422706633,2.0 L4.3301270189221945,1.5000000000000002 L3.464101615137756,3.0 L1.732050807568879,3.0 L1.7763568394002505e-15,3.0 L-0.8660254037844376,1.5000000000000004 L7.771561172376096e-16,1.0 L5.934590973655067e-16,0.0 Z" id="d20" />
<path d="M0,0 L3.464101615137755,2.220446049250313e-16 L1.732050807568879,3.0 Z" id="d21" />
<path d="M2.8059223082615823,1.8599999999999999 L2.805922308261582,1.1400000000000001 L2.182384017536786,1.5" id="d22" />
<path d="M0,0 L1.7320508075688772,0.0 L2.598076211353316,-1.4999999999999998 L3.464101615137755,-0.9999999999999998 L3.464101615137755,2.220446049250313e-16 L5.196152422706632,2.220446049250313e-16 L6.062177826491071,1.5 L5.196152422706633,2.0 L4.3301270189221945,1.5000000000000002 L3.464101615137756,3.0 L1.732050807568879,3.0 L1.7763568394002505e-15,3.0 L-0.8660254037844376,1.5000000000000004 L7.771561172376096e-16,1.0 L5.934590973655067e-16,0.0 Z" id="d23" />
<path d="M0,0 L3.464101615137755,2.220446049250313e-16 L1.732050807568879,3.0 Z" id="d24" />
<path d="M2.8059223082615823,1.8599999999999999 L2.805922308261582,1.1400000000000001 L2.182384017536786,1.5" id="d25" />
<path d="M0,0 L1.7320508075688772,0.0 L2.598076211353316,-1.4999999999999998 L3.464101615137755,-0.9999999999999998 L3.464101615137755,2.220446049250313e-16 L5.196152422706632,2.220446049250313e-16 L6.062177826491071,1.5 L5.196152422706633,2.0 L4.3301270189221945,1.5000000000000002 L3.464101615137756,3.0 L1.732050807568879,3.0 L1.7763568394002505e-15,3.0 L-0.8660254037844376,1.5000000000000004 L7.771561172376096e-16,1.0 L5.934590973655067e-16,0.0 Z" id="d26" />
<path d="M0,0 L3.464101615137755,2.220446049250313e-16 L1.732050807568879,3.0 Z" id="d27" />
<path d="M2.8059223082615823,1.8599999999999999 L2.805922308261582,1.1400000000000001 L2.182384017536786,1.5" id="d28" />
<path d="M0,0 L1.7320508075688772,0.0 L2.598076211353316,-1.4999999999999998 L3.464101615137755,-0.9999999999999998 L3.464101615137755,2.220446049250313e-16 L5.196152422706632,2.220446049250313e-16 L6.062177826491071,1.5 L5.196152422706633,2.0 L4.3301270189221945,1.5000000000000002 L3.464101615137756,3.0 L1.732050807568879,3.0 L1.7763568394002505e-15,3.0 L-0.8660254037844376,1.5000000000000004 L7.771561172376096e-16,1.0 L5.934590973655067e-16,0.0 Z" id="d29" />
<path d="M0,0 L3.464101615137755,2.220446049250313e-16 L1.732050807568879,3.0 Z" id="d30" />
<path d="M2.8059223082615823,1.8599999999999999 L2.805922308261582,1.1400000000000001 L2.182384017536786,1.5" id="d31" />
<path d="M0,0 L1.7320508075688772,0.0 L2.598076211353316,-1.4999999999999998 L3.464101615137755,-0.9999999999999998 L3.464101615137755,2.220446049250313e-16 L5.196152422706632,2.220446049250313e-16 L6.062177826491071,1.5 L5.196152422706633,2.0 L4.3301270189221945,1.5000000000000002 L3.464101615137756,3.0 L1.732050807568879,3.0 L1.7763568394002505e-15,3.0 L-0.8660254037844376,1.5000000000000004 L7.771561172376096e-16,1.0 L5.934590973655067e-16,0.0 Z" id="d32" />
<path d="M0,0 L3.464101615137755,2.220446049250313e-16 L1.732050807568879,3.0 Z" id="d33" />
<path d="M2.8059223082615823,1.8599999999999999 L2.805922308261582,1.1400000000000001 L2.182384017536786,1.5" id="d34" />
<path d="M0,0 L1.7320508075688772,0.0 L2.598076211353316,-1.4999999999999998 L3.464101615137755,-0.9999999999999998 L3.464101615137755,2.220446049250313e-16 L5.196152422706632,2.220446049250313e-16 L6.062177826491071,1.5 L5.196152422706633,2.0 L4.3301270189221945,1.5000000000000002 L3.464101615137756,3.0 L1.732050807568879,3.0 L1.7763568394002505e-15,3.0 L-0.8660254037844376,1.5000000000000004 L7.771561172376096e-16,1.0 L5.934590973655067e-16,0.0 Z" id="d35" />
</defs>
<use xlink:href="#d0" x="0" y="0" transform="matrix(1.0 0.0 0.0 -1.0 0 0)" fill="none" stroke="magenta" stroke-width="0.1" />
<use xlink:href="#d1" x="0" y="0" transform="matrix(1.0 0.0 0.0 -1.0 0 0)" fill="none" stroke="magenta" stroke-width="0.1" />
<use xlink:href="#d2" x="0" y="0" transform="matrix(1.0 0.0 0.0 -1.0 0 0)" fill="none" stroke="black" stroke-width="0.1" />
<text x="0" y="-10" font-size="1.5">M</text>
<text x="1.4" y="-9.3" font-size="1">1</text>
<use xlink:href="#d3" x="0" y="0" transform="matrix(0.5000000000000001 -0.8660254037844386 -0.8660254037844386 -0.5000000000000001 10 0)" fill="none" stroke="magenta" stroke-width="0.1" />
<use xlink:href="#d4" x="0" y="0" transform="matrix(0.5000000000000001 -0.8660254037844386 -0.8660254037844386 -0.5000000000000001 10 0)" fill="none" stroke="magenta" stroke-width="0.1" />
<use xlink:href="#d5" x="0" y="0" transform="matrix(0.5000000000000001 -0.8660254037844386 -0.8660254037844386 -0.5000000000000001 10 0)" fill="none" stroke="black" stroke-width="0.1" />
<text x="10" y="-10" font-size="1.5">M</text>
<text x="11.4" y="-9.3" font-size="1">3</text>
<use xlink:href="#d6" x="0" y="0" transform="matrix(-0.4999999999999998 -0.8660254037844387 -0.8660254037844387 0.4999999999999998 20 0)" fill="none" stroke="magenta" stroke-width="0.1" />
<use xlink:href="#d7" x="0" y="0" transform="matrix(-0.4999999999999998 -0.8660254037844387 -0.8660254037844387 0.4999999999999998 20 0)" fill="none" stroke="magenta" stroke-width="0.1" />
<use xlink:href="#d8" x="0" y="0" transform="matrix(-0.4999999999999998 -0.8660254037844387 -0.8660254037844387 0.4999999999999998 20 0)" fill="none" stroke="black" stroke-width="0.1" />
<text x="20" y="-10" font-size="1.5">M</text>
<text x="21.4" y="-9.3" font-size="1">5</text>
<use xlink:href="#d9" x="0" y="0" transform="matrix(-1.0 -1.2246467991473532e-16 -1.2246467991473532e-16 1.0 30 0)" fill="none" stroke="magenta" stroke-width="0.1" />
<use xlink:href="#d10" x="0" y="0" transform="matrix(-1.0 -1.2246467991473532e-16 -1.2246467991473532e-16 1.0 30 0)" fill="none" stroke="magenta" stroke-width="0.1" />
<use xlink:href="#d11" x="0" y="0" transform="matrix(-1.0 -1.2246467991473532e-16 -1.2246467991473532e-16 1.0 30 0)" fill="none" stroke="black" stroke-width="0.1" />
<text x="30" y="-10" font-size="1.5">M</text>
<text x="31.4" y="-9.3" font-size="1">7</text>
<use xlink:href="#d12" x="0" y="0" transform="matrix(-0.5000000000000004 0.8660254037844385 0.8660254037844385 0.5000000000000004 40 0)" fill="none" stroke="magenta" stroke-width="0.1" />
<use xlink:href="#d13" x="0" y="0" transform="matrix(-0.5000000000000004 0.8660254037844385 0.8660254037844385 0.5000000000000004 40 0)" fill="none" stroke="magenta" stroke-width="0.1" />
<use xlink:href="#d14" x="0" y="0" transform="matrix(-0.5000000000000004 0.8660254037844385 0.8660254037844385 0.5000000000000004 40 0)" fill="none" stroke="black" stroke-width="0.1" />
<text x="40" y="-10" font-size="1.5">M</text>
<text x="41.4" y="-9.3" font-size="1">9</text>
<use xlink:href="#d15" x="0" y="0" transform="matrix(0.5000000000000001 0.8660254037844386 0.8660254037844386 -0.5000000000000001 50 0)" fill="none" stroke="magenta" stroke-width="0.1" />
<use xlink:href="#d16" x="0" y="0" transform="matrix(0.5000000000000001 0.8660254037844386 0.8660254037844386 -0.5000000000000001 50 0)" fill="none" stroke="magenta" stroke-width="0.1" />
<use xlink:href="#d17" x="0" y="0" transform="matrix(0.5000000000000001 0.8660254037844386 0.8660254037844386 -0.5000000000000001 50 0)" fill="none" stroke="black" stroke-width="0.1" />
<text x="50" y="-10" font-size="1.5">M</text>
<text x="51.4" y="-9.3" font-size="1">11</text>
<use xlink:href="#d18" x="0" y="0" transform="matrix(0.8660254037844387 -0.49999999999999994 -0.49999999999999994 -0.8660254037844387 0 10)" fill="none" stroke="cyan" stroke-width="0.1" />
<use xlink:href="#d19" x="0" y="0" transform="matrix(0.8660254037844387 -0.49999999999999994 -0.49999999999999994 -0.8660254037844387 0 10)" fill="none" stroke="cyan" stroke-width="0.1" />
<use xlink:href="#d20" x="0" y="0" transform="matrix(0.8660254037844387 -0.49999999999999994 -0.49999999999999994 -0.8660254037844387 0 10)" fill="none" stroke="black" stroke-width="0.1" />
<text x="0" y="20" font-size="1.5">M</text>
<text x="1.4" y="20.7" font-size="1">2</text>
<use xlink:href="#d21" x="0" y="0" transform="matrix(6.123233995736766e-17 -1.0 -1.0 -6.123233995736766e-17 10 10)" fill="none" stroke="cyan" stroke-width="0.1" />
<use xlink:href="#d22" x="0" y="0" transform="matrix(6.123233995736766e-17 -1.0 -1.0 -6.123233995736766e-17 10 10)" fill="none" stroke="cyan" stroke-width="0.1" />
<use xlink:href="#d23" x="0" y="0" transform="matrix(6.123233995736766e-17 -1.0 -1.0 -6.123233995736766e-17 10 10)" fill="none" stroke="black" stroke-width="0.1" />
<text x="10" y="20" font-size="1.5">M</text>
<text x="11.4" y="20.7" font-size="1">4</text>
<use xlink:href="#d24" x="0" y="0" transform="matrix(-0.8660254037844385 -0.5000000000000003 -0.5000000000000003 0.8660254037844385 20 10)" fill="none" stroke="cyan" stroke-width="0.1" />
<use xlink:href="#d25" x="0" y="0" transform="matrix(-0.8660254037844385 -0.5000000000000003 -0.5000000000000003 0.8660254037844385 20 10)" fill="none" stroke="cyan" stroke-width="0.1" />
<use xlink:href="#d26" x="0" y="0" transform="matrix(-0.8660254037844385 -0.5000000000000003 -0.5000000000000003 0.8660254037844385 20 10)" fill="none" stroke="black" stroke-width="0.1" />
<text x="20" y="20" font-size="1.5">M</text>
<text x="21.4" y="20.7" font-size="1">6</text>
<use xlink:href="#d27" x="0" y="0" transform="matrix(-0.8660254037844388 0.4999999999999997 0.4999999999999997 0.8660254037844388 30 10)" fill="none" stroke="cyan" stroke-width="0.1" />
<use xlink:href="#d28" x="0" y="0" transform="matrix(-0.8660254037844388 0.4999999999999997 0.4999999999999997 0.8660254037844388 30 10)" fill="none" stroke="cyan" stroke-width="0.1" />
<use xlink:href="#d29" x="0" y="0" transform="matrix(-0.8660254037844388 0.4999999999999997 0.4999999999999997 0.8660254037844388 30 10)" fill="none" stroke="black" stroke-width="0.1" />
<text x="30" y="20" font-size="1.5">M</text>
<text x="31.4" y="20.7" font-size="1">8</text>
<use xlink:href="#d30" x="0" y="0" transform="matrix(-1.8369701987210297e-16 1.0 1.0 1.8369701987210297e-16 40 10)" fill="none" stroke="cyan" stroke-width="0.1" />
<use xlink:href="#d31" x="0" y="0" transform="matrix(-1.8369701987210297e-16 1.0 1.0 1.8369701987210297e-16 40 10)" fill="none" stroke="cyan" stroke-width="0.1" />
<use xlink:href="#d32" x="0" y="0" transform="matrix(-1.8369701987210297e-16 1.0 1.0 1.8369701987210297e-16 40 10)" fill="none" stroke="black" stroke-width="0.1" />
<text x="40" y="20" font-size="1.5">M</text>
<text x="41.4" y="20.7" font-size="1">10</text>
<use xlink:href="#d33" x="0" y="0" transform="matrix(0.8660254037844388 0.49999999999999967 0.49999999999999967 -0.8660254037844388 50 10)" fill="none" stroke="cyan" stroke-width="0.1" />
<use xlink:href="#d34" x="0" y="0" transform="matrix(0.8660254037844388 0.49999999999999967 0.49999999999999967 -0.8660254037844388 50 10)" fill="none" stroke="cyan" stroke-width="0.1" />
<use xlink:href="#d35" x="0" y="0" transform="matrix(0.8660254037844388 0.49999999999999967 0.49999999999999967 -0.8660254037844388 50 10)" fill="none" stroke="black" stroke-width="0.1" />
<text x="50" y="20" font-size="1.5">M</text>
<text x="51.4" y="20.7" font-size="1">12</text>
</svg>