<?xml version="1.0" encoding="UTF-8"?>
<svg xmlns="http://www.w3.org/2000/svg" xmlns:xlink="http://www.w3.org/1999/xlink"
     width="40" height="40" viewBox="-20.0 -20.0 40 40">
<defs>
<path d="M1.3669872981077822,1.7892304845413267 L1.3669872981077822,1.2892304845413267 L1.8000000000000014,1.0392304845413265 L1.2000000000000008,4.440892098500626e-16" id="d0" />
<path d="M0,0 L2.2330127018922195,-0.28923048454132627 L1.3669872981077822,1.7892304845413267 Z" id="d1" />
<path d="M1.9640384757729346,0.9647076581449593 L1.9039230484541332,0.5005846837100819 L1.5320384757729346,0.7847076581449596" id="d2" />
<path d="M0,0 L1.2,0.0 L1.8,-1.0392304845413263 L2.2330127018922195,-0.7892304845413263 L2.2330127018922195,-0.28923048454132627 L3.4330127018922196,-0.28923048454132627 L4.03301270189222,0.75 L3.600000000000001,1.0 L3.166987298107782,0.7500000000000001 L2.566987298107782,1.7892304845413265 L1.3669872981077822,1.7892304845413267 L0.16698729810778223,1.789230484541327 L-0.4330127018922183,0.7500000000000009 L8.881784197001252e-16,0.5000000000000007 L7.963299097640738e-16,6.661338147750939e-16 Z" id="d3" />
<path d="M-0.2892304845413264,2.233012701892219 L-0.2892304845413266,1.033012701892219 L0.7499999999999994,0.4330127018922185 L0.4999999999999992,-7.216449660063518e-16" id="d4" />
<path d="M0,0 L1.7892304845413265,1.3669872981077806 L-0.2892304845413264,2.233012701892219 Z" id="d5" />
<path d="M0.7152923418550408,2.067961524227066 L0.9994153162899183,1.6960769515458671 L0.5352923418550408,1.6359615242270662" id="d6" />
<path d="M0,0 L0.5,0.0 L0.75,-0.4330127018922193 L1.7892304845413265,0.16698729810778057 L1.7892304845413265,1.3669872981077806 L2.2892304845413265,1.3669872981077806 L2.5392304845413265,1.7999999999999998 L1.5,2.3999999999999995 L0.4607695154586735,1.7999999999999998 L0.21076951545867362,2.233012701892219 L-0.2892304845413264,2.233012701892219 L-0.7892304845413264,2.233012701892219 L-1.0392304845413265,1.7999999999999998 L-4.440892098500626e-16,1.1999999999999993 L-6.645256336965862e-16,-6.661338147750939e-16 Z" id="d7" />
</defs>
<use xlink:href="#d0" x="0" y="0" transform="matrix(1 0 0 -1 0 0)" fill="none" stroke="black" stroke-width="0.05" />
<use xlink:href="#d1" x="0" y="0" transform="matrix(1 0 0 -1 0 0)" fill="none" stroke="magenta" stroke-width="0.1" />
<use xlink:href="#d2" x="0" y="0" transform="matrix(1 0 0 -1 0 0)" fill="none" stroke="magenta" stroke-width="0.1" />
<use xlink:href="#d3" x="0" y="0" transform="matrix(1 0 0 -1 0 0)" fill="none" stroke="black" stroke-width="0.1" />
<use xlink:href="#d4" x="0" y="0" transform="matrix(1 0 0 -1 10 0)" fill="none" stroke="black" stroke-width="0.05" />
<use xlink:href="#d5" x="0" y="0" transform="matrix(1 0 0 -1 10 0)" fill="none" stroke="magenta" stroke-width="0.1" />
<use xlink:href="#d6" x="0" y="0" transform="matrix(1 0 0 -1 10 0)" fill="none" stroke="magenta" stroke-width="0.1" />
<use xlink:href="#d7" x="0" y="0" transform="matrix(1 0 0 -1 10 0)" fill="none" stroke="black" stroke-width="0.1" />
<text x="0" y="-5.0" font-size="1.2">Tile(1.2,0.5)</text>
<text x="10" y="-5.0" font-size="1.2">Tile(0.5,1.2)</text>
</svg>