<?xml version="1.0" encoding="UTF-8"?>
<svg xmlns="http://www.w3.org/2000/svg" xmlns:xlink="http://www.w3.org/1999/xlink"
     width="100" height="20" viewBox="-50.0 -10.0 100 20">
<defs>
<path d="M1.5,0.8660254037844388 L1.5,0.8660254037844388 L1.5,0.8660254037844388 L0.9999999999999996,3.3306690738754696e-16" id="d0" />
<path d="M0,0 L1.5,-0.8660254037844386 L1.5,0.8660254037844388 Z" id="d1" />
<path d="M1.68,0.10392304845413275 L1.5,-0.20784609690826517 L1.32,0.10392304845413275" id="d2" />
<path d="M0,0 L1.0,0.0 L1.5,-0.8660254037844386 L1.5,-0.8660254037844386 L1.5,-0.8660254037844386 L2.5,-0.8660254037844386 L3.0,0.0 L3.0,0.0 L3.0,0.0 L2.5,0.8660254037844387 L1.5,0.8660254037844388 L0.5,0.8660254037844389 L-4.440892098500626e-16,4.440892098500626e-16 L-4.440892098500626e-16,4.440892098500626e-16 L-4.440892098500626e-16,4.440892098500626e-16 Z" id="d3" />
<path d="M1.81698729810778,2.049038105676658 L1.81698729810778,1.549038105676658 L2.249999999999999,1.2990381056766578 L1.4999999999999984,0.0" id="d4" />
<path d="M0,0 L2.683012701892219,-0.549038105676658 L1.81698729810778,2.049038105676658 Z" id="d5" />
<path d="M2.468038475772933,0.995884572681199 L2.3539230484541322,0.4382308546376021 L1.928038475772933,0.8158845726811988" id="d6" />
<path d="M0,0 L1.5,0.0 L2.25,-1.299038105676658 L2.683012701892219,-1.049038105676658 L2.683012701892219,-0.549038105676658 L4.183012701892219,-0.549038105676658 L4.933012701892219,0.75 L4.499999999999999,1.0 L4.0669872981077795,0.7500000000000001 L3.31698729810778,2.049038105676658 L1.81698729810778,2.049038105676658 L0.3169872981077799,2.049038105676658 L-0.43301270189222074,0.7500000000000002 L-1.5543122344752192e-15,0.5 L-1.6461607444112707e-15,0.0 Z" id="d7" />
<path d="M1.732050807568879,3.0 L1.7320508075688787,2.0 L2.598076211353317,1.4999999999999996 L1.7320508075688776,0.0" id="d8" />
<path d="M0,0 L3.464101615137755,2.220446049250313e-16 L1.732050807568879,3.0 Z" id="d9" />
<path d="M2.8059223082615823,1.8599999999999999 L2.805922308261582,1.1400000000000001 L2.182384017536786,1.5" id="d10" />
<path d="M0,0 L1.7320508075688772,0.0 L2.598076211353316,-1.4999999999999998 L3.464101615137755,-0.9999999999999998 L3.464101615137755,2.220446049250313e-16 L5.196152422706632,2.220446049250313e-16 L6.062177826491071,1.5 L5.196152422706633,2.0 L4.3301270189221945,1.5000000000000002 L3.464101615137756,3.0 L1.732050807568879,3.0 L1.7763568394002505e-15,3.0 L-0.8660254037844376,1.5000000000000004 L7.771561172376096e-16,1.0 L5.934590973655067e-16,0.0 Z" id="d11" />
<path d="M0.6339745962155614,2.366025403784439 L0.6339745962155612,1.3660254037844388 L1.4999999999999996,0.8660254037844384 L0.9999999999999991,-1.1102230246251565e-16" id="d12" />
<path d="M0,0 L2.366025403784439,0.6339745962155614 L0.6339745962155614,2.366025403784439 Z" id="d13" />
<path d="M1.5760769515458672,1.7839230484541326 L1.7078460969082654,1.2921539030917346 L1.2160769515458674,1.4239230484541328" id="d14" />
<path d="M0,0 L1.0,0.0 L1.5,-0.8660254037844386 L2.366025403784439,-0.36602540378443865 L2.366025403784439,0.6339745962155614 L3.366025403784439,0.6339745962155614 L3.866025403784439,1.5 L3.0,2.0 L2.133974596215561,1.5000000000000002 L1.6339745962155614,2.366025403784439 L0.6339745962155614,2.366025403784439 L-0.3660254037844386,2.366025403784439 L-0.866025403784439,1.5000000000000004 L-6.661338147750939e-16,1.0 L-8.498308346471968e-16,0.0 Z" id="d15" />
<path d="M0.0,3.464101615137755 L-3.1817257161747205e-16,1.7320508075688776 L1.4999999999999991,0.8660254037844383 L0.9999999999999987,-2.220446049250313e-16" id="d16" />
<path d="M0,0 L3.0,1.7320508075688772 L0.0,3.464101615137755 Z" id="d17" />
<path d="M1.5,3.013768405169847 L1.8599999999999999,2.3902301144450506 L1.1400000000000001,2.3902301144450506" id="d18" />
<path d="M0,0 L1.0,0.0 L1.5,-0.8660254037844386 L3.0,-1.1102230246251565e-16 L3.0,1.7320508075688772 L4.0,1.7320508075688772 L4.5,2.598076211353316 L3.0,3.4641016151377544 L1.4999999999999998,2.598076211353316 L1.0,3.464101615137755 L0.0,3.464101615137755 L-1.0,3.464101615137755 L-1.5000000000000004,2.5980762113533165 L-1.1102230246251565e-15,1.7320508075688772 L-1.4283955962426286e-15,0.0 Z" id="d19" />
<path d="M-0.5490381056766581,2.6830127018922196 L-0.5490381056766583,1.1830127018922196 L0.7499999999999992,0.43301270189221897 L0.499999999999999,-2.7755575615628914e-16" id="d20" />
<path d="M0,0 L2.049038105676658,1.8169872981077806 L-0.5490381056766581,2.6830127018922196 Z" id="d21" />
<path d="M0.684115427318801,2.571961524227066 L1.0617691453623979,2.1460769515458673 L0.5041154273188011,2.031961524227066" id="d22" />
<path d="M0,0 L0.5,0.0 L0.75,-0.4330127018922193 L2.049038105676658,0.3169872981077806 L2.049038105676658,1.8169872981077806 L2.549038105676658,1.8169872981077806 L2.799038105676658,2.25 L1.5,3.0 L0.20096189432334177,2.2500000000000004 L-0.04903810567665812,2.6830127018922196 L-0.5490381056766581,2.6830127018922196 L-1.049038105676658,2.6830127018922196 L-1.2990381056766582,2.2500000000000004 L-6.661338147750939e-16,1.4999999999999998 L-9.416793445832484e-16,-2.220446049250313e-16 Z" id="d23" />
<path d="M-0.8660254037844387,1.5000000000000002 L-0.8660254037844389,0.5000000000000002 L-5.551115123125783e-16,-2.220446049250313e-16 L-5.551115123125783e-16,-2.220446049250313e-16" id="d24" />
<path d="M0,0 L0.8660254037844388,1.5 L-0.8660254037844387,1.5000000000000002 Z" id="d25" />
<path d="M-0.10392304845413257,1.68 L0.20784609690826536,1.5 L-0.10392304845413262,1.32" id="d26" />
<path d="M0,0 L0.0,0.0 L0.0,0.0 L0.8660254037844387,0.49999999999999994 L0.8660254037844388,1.5 L0.8660254037844388,1.5 L0.8660254037844388,1.5 L1.1102230246251565e-16,2.0 L-0.8660254037844387,1.5000000000000002 L-0.8660254037844387,1.5000000000000002 L-0.8660254037844387,1.5000000000000002 L-0.8660254037844387,1.5000000000000002 L-0.8660254037844387,1.5000000000000002 L-3.3306690738754696e-16,0.9999999999999998 L-5.167639272596499e-16,-2.220446049250313e-16 Z" id="d27" />
</defs>
<use xlink:href="#d0" x="0" y="0" transform="matrix(1 0 0 -1 0 0)" fill="none" stroke="black" stroke-width="0.05" />
<use xlink:href="#d1" x="0" y="0" transform="matrix(1 0 0 -1 0 0)" fill="none" stroke="magenta" stroke-width="0.1" />
<use xlink:href="#d2" x="0" y="0" transform="matrix(1 0 0 -1 0 0)" fill="none" stroke="magenta" stroke-width="0.1" />
<use xlink:href="#d3" x="0" y="0" transform="matrix(1 0 0 -1 0 0)" fill="none" stroke="black" stroke-width="0.1" />
<use xlink:href="#d4" x="0" y="0" transform="matrix(1 0 0 -1 8 0)" fill="none" stroke="black" stroke-width="0.05" />
<use xlink:href="#d5" x="0" y="0" transform="matrix(1 0 0 -1 8 0)" fill="none" stroke="magenta" stroke-width="0.1" />
<use xlink:href="#d6" x="0" y="0" transform="matrix(1 0 0 -1 8 0)" fill="none" stroke="magenta" stroke-width="0.1" />
<use xlink:href="#d7" x="0" y="0" transform="matrix(1 0 0 -1 8 0)" fill="none" stroke="black" stroke-width="0.1" />
<use xlink:href="#d8" x="0" y="0" transform="matrix(1 0 0 -1 16 0)" fill="none" stroke="black" stroke-width="0.05" />
<use xlink:href="#d9" x="0" y="0" transform="matrix(1 0 0 -1 16 0)" fill="none" stroke="magenta" stroke-width="0.1" />
<use xlink:href="#d10" x="0" y="0" transform="matrix(1 0 0 -1 16 0)" fill="none" stroke="magenta" stroke-width="0.1" />
<use xlink:href="#d11" x="0" y="0" transform="matrix(1 0 0 -1 16 0)" fill="none" stroke="black" stroke-width="0.1" />
<use xlink:href="#d12" x="0" y="0" transform="matrix(1 0 0 -1 24 0)" fill="none" stroke="black" stroke-width="0.05" />
<use xlink:href="#d13" x="0" y="0" transform="matrix(1 0 0 -1 24 0)" fill="none" stroke="magenta" stroke-width="0.1" />
<use xlink:href="#d14" x="0" y="0" transform="matrix(1 0 0 -1 24 0)" fill="none" stroke="magenta" stroke-width="0.1" />
<use xlink:href="#d15" x="0" y="0" transform="matrix(1 0 0 -1 24 0)" fill="none" stroke="black" stroke-width="0.1" />
<use xlink:href="#d16" x="0" y="0" transform="matrix(1 0 0 -1 32 0)" fill="none" stroke="black" stroke-width="0.05" />
<use xlink:href="#d17" x="0" y="0" transform="matrix(1 0 0 -1 32 0)" fill="none" stroke="magenta" stroke-width="0.1" />
<use xlink:href="#d18" x="0" y="0" transform="matrix(1 0 0 -1 32 0)" fill="none" stroke="magenta" stroke-width="0.1" />
<use xlink:href="#d19" x="0" y="0" transform="matrix(1 0 0 -1 32 0)" fill="none" stroke="black" stroke-width="0.1" />
<use xlink:href="#d20" x="0" y="0" transform="matrix(1 0 0 -1 40 0)" fill="none" stroke="black" stroke-width="0.05" />
<use xlink:href="#d21" x="0" y="0" transform="matrix(1 0 0 -1 40 0)" fill="none" stroke="magenta" stroke-width="0.1" />
<use xlink:href="#d22" x="0" y="0" transform="matrix(1 0 0 -1 40 0)" fill="none" stroke="magenta" stroke-width="0.1" />
<use xlink:href="#d23" x="0" y="0" transform="matrix(1 0 0 -1 40 0)" fill="none" stroke="black" stroke-width="0.1" />
<use xlink:href="#d24" x="0" y="0" transform="matrix(1 0 0 -1 48 0)" fill="none" stroke="black" stroke-width="0.05" />
<use xlink:href="#d25" x="0" y="0" transform="matrix(1 0 0 -1 48 0)" fill="none" stroke="magenta" stroke-width="0.1" />
<use xlink:href="#d26" x="0" y="0" transform="matrix(1 0 0 -1 48 0)" fill="none" stroke="magenta" stroke-width="0.1" />
<use xlink:href="#d27" x="0" y="0" transform="matrix(1 0 0 -1 48 0)" fill="none" stroke="black" stroke-width="0.1" />
</svg>