<?xml version="1.0" encoding="UTF-8"?>
<svg xmlns="http://www.w3.org/2000/svg" xmlns:xlink="http://www.w3.org/1999/xlink"
     width="50" height="50" viewBox="-25.0 -25.0 50 50">
<defs>
<path d="M0.6339745962155614,2.366025403784439 L0.6339745962155612,1.3660254037844388 L1.4999999999999996,0.8660254037844384 L0.9999999999999991,-1.1102230246251565e-16" id="d0" />
<path d="M0,0 L2.366025403784439,0.6339745962155614 L0.6339745962155614,2.366025403784439 Z" id="d1" />
<path d="M1.5760769515458672,1.7839230484541326 L1.7078460969082654,1.2921539030917346 L1.2160769515458674,1.4239230484541328" id="d2" />
<path d="M0,0 L1.0,0.0 L1.5,-0.8660254037844386 L2.366025403784439,-0.36602540378443865 L2.366025403784439,0.6339745962155614 L3.366025403784439,0.6339745962155614 L3.866025403784439,1.5 L3.0,2.0 L2.133974596215561,1.5000000000000002 L1.6339745962155614,2.366025403784439 L0.6339745962155614,2.366025403784439 L-0.3660254037844386,2.366025403784439 L-0.866025403784439,1.5000000000000004 L-6.661338147750939e-16,1.0 L-8.498308346471968e-16,0.0 Z" id="d3" />
</defs>
<use xlink:href="#d0" x="0" y="0" transform="matrix(1 0 0 -1 0 0)" fill="none" stroke="black" stroke-width="0.05" />
<use xlink:href="#d1" x="0" y="0" transform="matrix(1 0 0 -1 0 0)" fill="none" stroke="magenta" stroke-width="0.1" />
<use xlink:href="#d2" x="0" y="0" transform="matrix(1 0 0 -1 0 0)" fill="none" stroke="magenta" stroke-width="0.1" />
<use xlink:href="#d3" x="0" y="0" transform="matrix(1 0 0 -1 0 0)" fill="none" stroke="black" stroke-width="0.1" />
</svg>