<?xml version="1.0" encoding="UTF-8"?>
<svg xmlns="http://www.w3.org/2000/svg" xmlns:xlink="http://www.w3.org/1999/xlink"
     width="100" height="50" viewBox="-50.0 -25.0 100 50">
<defs>
<path d="M0.6339745962155614,2.366025403784439 L0.6339745962155612,1.3660254037844388 L1.4999999999999996,0.8660254037844384 L0.9999999999999991,-1.1102230246251565e-16" id="d0" />
<path d="M0,0 L2.366025403784439,0.6339745962155614 L0.6339745962155614,2.366025403784439 Z" id="d1" />
<path d="M1.5760769515458672,1.7839230484541326 L1.7078460969082654,1.2921539030917346 L1.2160769515458674,1.4239230484541328" id="d2" />
<path d="M0,0 L1.0,0.0 L1.5,-0.8660254037844386 L2.366025403784439,-0.36602540378443865 L2.366025403784439,0.6339745962155614 L3.366025403784439,0.6339745962155614 L3.866025403784439,1.5 L3.0,2.0 L2.133974596215561,1.5000000000000002 L1.6339745962155614,2.366025403784439 L0.6339745962155614,2.366025403784439 L-0.3660254037844386,2.366025403784439 L-0.866025403784439,1.5000000000000004 L-6.661338147750939e-16,1.0 L-8.498308346471968e-16,0.0 Z" id="d3" />
<path d="M0.6339745962155614,2.366025403784439 L0.6339745962155612,1.3660254037844388 L1.4999999999999996,0.8660254037844384 L0.9999999999999991,-1.1102230246251565e-16" id="d4" />
<path d="M0,0 L2.366025403784439,0.6339745962155614 L0.6339745962155614,2.366025403784439 Z" id="d5" />
<path d="M1.5760769515458672,1.7839230484541326 L1.7078460969082654,1.2921539030917346 L1.2160769515458674,1.4239230484541328" id="d6" />
<path d="M0,0 L1.0,0.0 L1.5,-0.8660254037844386 L2.366025403784439,-0.36602540378443865 L2.366025403784439,0.6339745962155614 L3.366025403784439,0.6339745962155614 L3.866025403784439,1.5 L3.0,2.0 L2.133974596215561,1.5000000000000002 L1.6339745962155614,2.366025403784439 L0.6339745962155614,2.366025403784439 L-0.3660254037844386,2.366025403784439 L-0.866025403784439,1.5000000000000004 L-6.661338147750939e-16,1.0 L-8.498308346471968e-16,0.0 Z" id="d7" />
<path d="M0.6339745962155614,2.366025403784439 L0.6339745962155612,1.3660254037844388 L1.4999999999999996,0.8660254037844384 L0.9999999999999991,-1.1102230246251565e-16" id="d8" />
<path d="M0,0 L2.366025403784439,0.6339745962155614 L0.6339745962155614,2.366025403784439 Z" id="d9" />
<path d="M1.5760769515458672,1.7839230484541326 L1.7078460969082654,1.2921539030917346 L1.2160769515458674,1.4239230484541328" id="d10" />
<path d="M0,0 L1.0,0.0 L1.5,-0.8660254037844386 L2.366025403784439,-0.36602540378443865 L2.366025403784439,0.6339745962155614 L3.366025403784439,0.6339745962155614 L3.866025403784439,1.5 L3.0,2.0 L2.133974596215561,1.5000000000000002 L1.6339745962155614,2.366025403784439 L0.6339745962155614,2.366025403784439 L-0.3660254037844386,2.366025403784439 L-0.866025403784439,1.5000000000000004 L-6.661338147750939e-16,1.0 L-8.498308346471968e-16,0.0 Z" id="d11" />
<path d="M0.6339745962155614,2.366025403784439 L0.6339745962155612,1.3660254037844388 L1.4999999999999996,0.8660254037844384 L0.9999999999999991,-1.1102230246251565e-16" id="d12" />
<path d="M0,0 L2.366025403784439,0.6339745962155614 L0.6339745962155614,2.366025403784439 Z" id="d13" />
<path d="M1.5760769515458672,1.7839230484541326 L1.7078460969082654,1.2921539030917346 L1.2160769515458674,1.4239230484541328" id="d14" />
<path d="M0,0 L1.0,0.0 L1.5,-0.8660254037844386 L2.366025403784439,-0.36602540378443865 L2.366025403784439,0.6339745962155614 L3.366025403784439,0.6339745962155614 L3.866025403784439,1.5 L3.0,2.0 L2.133974596215561,1.5000000000000002 L1.6339745962155614,2.366025403784439 L0.6339745962155614,2.366025403784439 L-0.3660254037844386,2.366025403784439 L-0.866025403784439,1.5000000000000004 L-6.661338147750939e-16,1.0 L-8.498308346471968e-16,0.0 Z" id="d15" />
<path d="M0.6339745962155614,2.366025403784439 L0.6339745962155612,1.3660254037844388 L1.4999999999999996,0.8660254037844384 L0.9999999999999991,-1.1102230246251565e-16" id="d16" />
<path d="M0,0 L2.366025403784439,0.6339745962155614 L0.6339745962155614,2.366025403784439 Z" id="d17" />
<path d="M1.5760769515458672,1.7839230484541326 L1.7078460969082654,1.2921539030917346 L1.2160769515458674,1.4239230484541328" id="d18" />
<path d="M0,0 L1.0,0.0 L1.5,-0.8660254037844386 L2.366025403784439,-0.36602540378443865 L2.366025403784439,0.6339745962155614 L3.366025403784439,0.6339745962155614 L3.866025403784439,1.5 L3.0,2.0 L2.133974596215561,1.5000000000000002 L1.6339745962155614,2.366025403784439 L0.6339745962155614,2.366025403784439 L-0.3660254037844386,2.366025403784439 L-0.866025403784439,1.5000000000000004 L-6.661338147750939e-16,1.0 L-8.498308346471968e-16,0.0 Z" id="d19" />
<path d="M0.6339745962155614,2.366025403784439 L0.6339745962155612,1.3660254037844388 L1.4999999999999996,0.8660254037844384 L0.9999999999999991,-1.1102230246251565e-16" id="d20" />
<path d="M0,0 L2.366025403784439,0.6339745962155614 L0.6339745962155614,2.366025403784439 Z" id="d21" />
<path d="M1.5760769515458672,1.7839230484541326 L1.7078460969082654,1.2921539030917346 L1.2160769515458674,1.4239230484541328" id="d22" />
<path d="M0,0 L1.0,0.0 L1.5,-0.8660254037844386 L2.366025403784439,-0.36602540378443865 L2.366025403784439,0.6339745962155614 L3.366025403784439,0.6339745962155614 L3.866025403784439,1.5 L3.0,2.0 L2.133974596215561,1.5000000000000002 L1.6339745962155614,2.366025403784439 L0.6339745962155614,2.366025403784439 L-0.3660254037844386,2.366025403784439 L-0.866025403784439,1.5000000000000004 L-6.661338147750939e-16,1.0 L-8.498308346471968e-16,0.0 Z" id="d23" />
<path d="M0.6339745962155614,2.366025403784439 L0.6339745962155612,1.3660254037844388 L1.4999999999999996,0.8660254037844384 L0.9999999999999991,-1.1102230246251565e-16" id="d24" />
<path d="M0,0 L2.366025403784439,0.6339745962155614 L0.6339745962155614,2.366025403784439 Z" id="d25" />
<path d="M1.5760769515458672,1.7839230484541326 L1.7078460969082654,1.2921539030917346 L1.2160769515458674,1.4239230484541328" id="d26" />
<path d="M0,0 L1.0,0.0 L1.5,-0.8660254037844386 L2.366025403784439,-0.36602540378443865 L2.366025403784439,0.6339745962155614 L3.366025403784439,0.6339745962155614 L3.866025403784439,1.5 L3.0,2.0 L2.133974596215561,1.5000000000000002 L1.6339745962155614,2.366025403784439 L0.6339745962155614,2.366025403784439 L-0.3660254037844386,2.366025403784439 L-0.866025403784439,1.5000000000000004 L-6.661338147750939e-16,1.0 L-8.498308346471968e-16,0.0 Z" id="d27" />
<path d="M0.6339745962155614,2.366025403784439 L0.6339745962155612,1.3660254037844388 L1.4999999999999996,0.8660254037844384 L0.9999999999999991,-1.1102230246251565e-16" id="d28" />
<path d="M0,0 L2.366025403784439,0.6339745962155614 L0.6339745962155614,2.366025403784439 Z" id="d29" />
<path d="M1.5760769515458672,1.7839230484541326 L1.7078460969082654,1.2921539030917346 L1.2160769515458674,1.4239230484541328" id="d30" />
<path d="M0,0 L1.0,0.0 L1.5,-0.8660254037844386 L2.366025403784439,-0.36602540378443865 L2.366025403784439,0.6339745962155614 L3.366025403784439,0.6339745962155614 L3.866025403784439,1.5 L3.0,2.0 L2.133974596215561,1.5000000000000002 L1.6339745962155614,2.366025403784439 L0.6339745962155614,2.366025403784439 L-0.3660254037844386,2.366025403784439 L-0.866025403784439,1.5000000000000004 L-6.661338147750939e-16,1.0 L-8.498308346471968e-16,0.0 Z" id="d31" />
<path d="M0.6339745962155614,2.366025403784439 L0.6339745962155612,1.3660254037844388 L1.4999999999999996,0.8660254037844384 L0.9999999999999991,-1.1102230246251565e-16" id="d32" />
<path d="M0,0 L2.366025403784439,0.6339745962155614 L0.6339745962155614,2.366025403784439 Z" id="d33" />
<path d="M1.5760769515458672,1.7839230484541326 L1.7078460969082654,1.2921539030917346 L1.2160769515458674,1.4239230484541328" id="d34" />
<path d="M0,0 L1.0,0.0 L1.5,-0.8660254037844386 L2.366025403784439,-0.36602540378443865 L2.366025403784439,0.6339745962155614 L3.366025403784439,0.6339745962155614 L3.866025403784439,1.5 L3.0,2.0 L2.133974596215561,1.5000000000000002 L1.6339745962155614,2.366025403784439 L0.6339745962155614,2.366025403784439 L-0.3660254037844386,2.366025403784439 L-0.866025403784439,1.5000000000000004 L-6.661338147750939e-16,1.0 L-8.498308346471968e-16,0.0 Z" id="d35" />
<path d="M0.6339745962155614,2.366025403784439 L0.6339745962155612,1.3660254037844388 L1.4999999999999996,0.8660254037844384 L0.9999999999999991,-1.1102230246251565e-16" id="d36" />
<path d="M0,0 L2.366025403784439,0.6339745962155614 L0.6339745962155614,2.366025403784439 Z" id="d37" />
<path d="M1.5760769515458672,1.7839230484541326 L1.7078460969082654,1.2921539030917346 L1.2160769515458674,1.4239230484541328" id="d38" />
<path d="M0,0 L1.0,0.0 L1.5,-0.8660254037844386 L2.366025403784439,-0.36602540378443865 L2.366025403784439,0.6339745962155614 L3.366025403784439,0.6339745962155614 L3.866025403784439,1.5 L3.0,2.0 L2.133974596215561,1.5000000000000002 L1.6339745962155614,2.366025403784439 L0.6339745962155614,2.366025403784439 L-0.3660254037844386,2.366025403784439 L-0.866025403784439,1.5000000000000004 L-6.661338147750939e-16,1.0 L-8.498308346471968e-16,0.0 Z" id="d39" />
<path d="M0.6339745962155614,2.366025403784439 L0.6339745962155612,1.3660254037844388 L1.4999999999999996,0.8660254037844384 L0.9999999999999991,-1.1102230246251565e-16" id="d40" />
<path d="M0,0 L2.366025403784439,0.6339745962155614 L0.6339745962155614,2.366025403784439 Z" id="d41" />
<path d="M1.5760769515458672,1.7839230484541326 L1.7078460969082654,1.2921539030917346 L1.2160769515458674,1.4239230484541328" id="d42" />
<path d="M0,0 L1.0,0.0 L1.5,-0.8660254037844386 L2.366025403784439,-0.36602540378443865 L2.366025403784439,0.6339745962155614 L3.366025403784439,0.6339745962155614 L3.866025403784439,1.5 L3.0,2.0 L2.133974596215561,1.5000000000000002 L1.6339745962155614,2.366025403784439 L0.6339745962155614,2.366025403784439 L-0.3660254037844386,2.366025403784439 L-0.866025403784439,1.5000000000000004 L-6.661338147750939e-16,1.0 L-8.498308346471968e-16,0.0 Z" id="d43" />
<path d="M0.6339745962155614,2.366025403784439 L0.6339745962155612,1.3660254037844388 L1.4999999999999996,0.8660254037844384 L0.9999999999999991,-1.1102230246251565e-16" id="d44" />
<path d="M0,0 L2.366025403784439,0.6339745962155614 L0.6339745962155614,2.366025403784439 Z" id="d45" />
<path d="M1.5760769515458672,1.7839230484541326 L1.7078460969082654,1.2921539030917346 L1.2160769515458674,1.4239230484541328" id="d46" />
<path d="M0,0 L1.0,0.0 L1.5,-0.8660254037844386 L2.366025403784439,-0.36602540378443865 L2.366025403784439,0.6339745962155614 L3.366025403784439,0.6339745962155614 L3.866025403784439,1.5 L3.0,2.0 L2.133974596215561,1.5000000000000002 L1.6339745962155614,2.366025403784439 L0.6339745962155614,2.366025403784439 L-0.3660254037844386,2.366025403784439 L-0.866025403784439,1.5000000000000004 L-6.661338147750939e-16,1.0 L-8.498308346471968e-16,0.0 Z" id="d47" />
</defs>
<use xlink:href="#d0" x="0" y="0" transform="matrix(1.0 0.0 0.0 -1.0 0 0)" fill="none" stroke="black" stroke-width="0.05" />
<use xlink:href="#d1" x="0" y="0" transform="matrix(1.0 0.0 0.0 -1.0 0 0)" fill="none" stroke="magenta" stroke-width="0.1" />
<use xlink:href="#d2" x="0" y="0" transform="matrix(1.0 0.0 0.0 -1.0 0 0)" fill="none" stroke="magenta" stroke-width="0.1" />
<use xlink:href="#d3" x="0" y="0" transform="matrix(1.0 0.0 0.0 -1.0 0 0)" fill="none" stroke="black" stroke-width="0.1" />
<text x="0" y="-8" font-size="1.5">M</text>
<text x="1.4" y="-7.3" font-size="1">1</text>
<use xlink:href="#d4" x="0" y="0" transform="matrix(0.5000000000000001 -0.8660254037844386 -0.8660254037844386 -0.5000000000000001 8 0)" fill="none" stroke="black" stroke-width="0.05" />
<use xlink:href="#d5" x="0" y="0" transform="matrix(0.5000000000000001 -0.8660254037844386 -0.8660254037844386 -0.5000000000000001 8 0)" fill="none" stroke="magenta" stroke-width="0.1" />
<use xlink:href="#d6" x="0" y="0" transform="matrix(0.5000000000000001 -0.8660254037844386 -0.8660254037844386 -0.5000000000000001 8 0)" fill="none" stroke="magenta" stroke-width="0.1" />
<use xlink:href="#d7" x="0" y="0" transform="matrix(0.5000000000000001 -0.8660254037844386 -0.8660254037844386 -0.5000000000000001 8 0)" fill="none" stroke="black" stroke-width="0.1" />
<text x="8" y="-8" font-size="1.5">M</text>
<text x="9.4" y="-7.3" font-size="1">3</text>
<use xlink:href="#d8" x="0" y="0" transform="matrix(-0.4999999999999998 -0.8660254037844387 -0.8660254037844387 0.4999999999999998 16 0)" fill="none" stroke="black" stroke-width="0.05" />
<use xlink:href="#d9" x="0" y="0" transform="matrix(-0.4999999999999998 -0.8660254037844387 -0.8660254037844387 0.4999999999999998 16 0)" fill="none" stroke="magenta" stroke-width="0.1" />
<use xlink:href="#d10" x="0" y="0" transform="matrix(-0.4999999999999998 -0.8660254037844387 -0.8660254037844387 0.4999999999999998 16 0)" fill="none" stroke="magenta" stroke-width="0.1" />
<use xlink:href="#d11" x="0" y="0" transform="matrix(-0.4999999999999998 -0.8660254037844387 -0.8660254037844387 0.4999999999999998 16 0)" fill="none" stroke="black" stroke-width="0.1" />
<text x="16" y="-8" font-size="1.5">M</text>
<text x="17.4" y="-7.3" font-size="1">5</text>
<use xlink:href="#d12" x="0" y="0" transform="matrix(-1.0 -1.2246467991473532e-16 -1.2246467991473532e-16 1.0 24 0)" fill="none" stroke="black" stroke-width="0.05" />
<use xlink:href="#d13" x="0" y="0" transform="matrix(-1.0 -1.2246467991473532e-16 -1.2246467991473532e-16 1.0 24 0)" fill="none" stroke="magenta" stroke-width="0.1" />
<use xlink:href="#d14" x="0" y="0" transform="matrix(-1.0 -1.2246467991473532e-16 -1.2246467991473532e-16 1.0 24 0)" fill="none" stroke="magenta" stroke-width="0.1" />
<use xlink:href="#d15" x="0" y="0" transform="matrix(-1.0 -1.2246467991473532e-16 -1.2246467991473532e-16 1.0 24 0)" fill="none" stroke="black" stroke-width="0.1" />
<text x="24" y="-8" font-size="1.5">M</text>
<text x="25.4" y="-7.3" font-size="1">7</text>
<use xlink:href="#d16" x="0" y="0" transform="matrix(-0.5000000000000004 0.8660254037844385 0.8660254037844385 0.5000000000000004 32 0)" fill="none" stroke="black" stroke-width="0.05" />
<use xlink:href="#d17" x="0" y="0" transform="matrix(-0.5000000000000004 0.8660254037844385 0.8660254037844385 0.5000000000000004 32 0)" fill="none" stroke="magenta" stroke-width="0.1" />
<use xlink:href="#d18" x="0" y="0" transform="matrix(-0.5000000000000004 0.8660254037844385 0.8660254037844385 0.5000000000000004 32 0)" fill="none" stroke="magenta" stroke-width="0.1" />
<use xlink:href="#d19" x="0" y="0" transform="matrix(-0.5000000000000004 0.8660254037844385 0.8660254037844385 0.5000000000000004 32 0)" fill="none" stroke="black" stroke-width="0.1" />
<text x="32" y="-8" font-size="1.5">M</text>
<text x="33.4" y="-7.3" font-size="1">9</text>
<use xlink:href="#d20" x="0" y="0" transform="matrix(0.5000000000000001 0.8660254037844386 0.8660254037844386 -0.5000000000000001 40 0)" fill="none" stroke="black" stroke-width="0.05" />
<use xlink:href="#d21" x="0" y="0" transform="matrix(0.5000000000000001 0.8660254037844386 0.8660254037844386 -0.5000000000000001 40 0)" fill="none" stroke="magenta" stroke-width="0.1" />
<use xlink:href="#d22" x="0" y="0" transform="matrix(0.5000000000000001 0.8660254037844386 0.8660254037844386 -0.5000000000000001 40 0)" fill="none" stroke="magenta" stroke-width="0.1" />
<use xlink:href="#d23" x="0" y="0" transform="matrix(0.5000000000000001 0.8660254037844386 0.8660254037844386 -0.5000000000000001 40 0)" fill="none" stroke="black" stroke-width="0.1" />
<text x="40" y="-8" font-size="1.5">M</text>
<text x="41.4" y="-7.3" font-size="1">11</text>
<use xlink:href="#d24" x="0" y="0" transform="matrix(0.8660254037844387 -0.49999999999999994 -0.49999999999999994 -0.8660254037844387 0 8)" fill="none" stroke="black" stroke-width="0.05" />
<use xlink:href="#d25" x="0" y="0" transform="matrix(0.8660254037844387 -0.49999999999999994 -0.49999999999999994 -0.8660254037844387 0 8)" fill="none" stroke="cyan" stroke-width="0.1" />
<use xlink:href="#d26" x="0" y="0" transform="matrix(0.8660254037844387 -0.49999999999999994 -0.49999999999999994 -0.8660254037844387 0 8)" fill="none" stroke="cyan" stroke-width="0.1" />
<use xlink:href="#d27" x="0" y="0" transform="matrix(0.8660254037844387 -0.49999999999999994 -0.49999999999999994 -0.8660254037844387 0 8)" fill="none" stroke="black" stroke-width="0.1" />
<text x="0" y="16" font-size="1.5">M</text>
<text x="1.4" y="16.7" font-size="1">2</text>
<use xlink:href="#d28" x="0" y="0" transform="matrix(6.123233995736766e-17 -1.0 -1.0 -6.123233995736766e-17 8 8)" fill="none" stroke="black" stroke-width="0.05" />
<use xlink:href="#d29" x="0" y="0" transform="matrix(6.123233995736766e-17 -1.0 -1.0 -6.123233995736766e-17 8 8)" fill="none" stroke="cyan" stroke-width="0.1" />
<use xlink:href="#d30" x="0" y="0" transform="matrix(6.123233995736766e-17 -1.0 -1.0 -6.123233995736766e-17 8 8)" fill="none" stroke="cyan" stroke-width="0.1" />
<use xlink:href="#d31" x="0" y="0" transform="matrix(6.123233995736766e-17 -1.0 -1.0 -6.123233995736766e-17 8 8)" fill="none" stroke="black" stroke-width="0.1" />
<text x="8" y="16" font-size="1.5">M</text>
<text x="9.4" y="16.7" font-size="1">4</text>
<use xlink:href="#d32" x="0" y="0" transform="matrix(-0.8660254037844385 -0.5000000000000003 -0.5000000000000003 0.8660254037844385 16 8)" fill="none" stroke="black" stroke-width="0.05" />
<use xlink:href="#d33" x="0" y="0" transform="matrix(-0.8660254037844385 -0.5000000000000003 -0.5000000000000003 0.8660254037844385 16 8)" fill="none" stroke="cyan" stroke-width="0.1" />
<use xlink:href="#d34" x="0" y="0" transform="matrix(-0.8660254037844385 -0.5000000000000003 -0.5000000000000003 0.8660254037844385 16 8)" fill="none" stroke="cyan" stroke-width="0.1" />
<use xlink:href="#d35" x="0" y="0" transform="matrix(-0.8660254037844385 -0.5000000000000003 -0.5000000000000003 0.8660254037844385 16 8)" fill="none" stroke="black" stroke-width="0.1" />
<text x="16" y="16" font-size="1.5">M</text>
<text x="17.4" y="16.7" font-size="1">6</text>
<use xlink:href="#d36" x="0" y="0" transform="matrix(-0.8660254037844388 0.4999999999999997 0.4999999999999997 0.8660254037844388 24 8)" fill="none" stroke="black" stroke-width="0.05" />
<use xlink:href="#d37" x="0" y="0" transform="matrix(-0.8660254037844388 0.4999999999999997 0.4999999999999997 0.8660254037844388 24 8)" fill="none" stroke="cyan" stroke-width="0.1" />
<use xlink:href="#d38" x="0" y="0" transform="matrix(-0.8660254037844388 0.4999999999999997 0.4999999999999997 0.8660254037844388 24 8)" fill="none" stroke="cyan" stroke-width="0.1" />
<use xlink:href="#d39" x="0" y="0" transform="matrix(-0.8660254037844388 0.4999999999999997 0.4999999999999997 0.8660254037844388 24 8)" fill="none" stroke="black" stroke-width="0.1" />
<text x="24" y="16" font-size="1.5">M</text>
<text x="25.4" y="16.7" font-size="1">8</text>
<use xlink:href="#d40" x="0" y="0" transform="matrix(-1.8369701987210297e-16 1.0 1.0 1.8369701987210297e-16 32 8)" fill="none" stroke="black" stroke-width="0.05" />
<use xlink:href="#d41" x="0" y="0" transform="matrix(-1.8369701987210297e-16 1.0 1.0 1.8369701987210297e-16 32 8)" fill="none" stroke="cyan" stroke-width="0.1" />
<use xlink:href="#d42" x="0" y="0" transform="matrix(-1.8369701987210297e-16 1.0 1.0 1.8369701987210297e-16 32 8)" fill="none" stroke="cyan" stroke-width="0.1" />
<use xlink:href="#d43" x="0" y="0" transform="matrix(-1.8369701987210297e-16 1.0 1.0 1.8369701987210297e-16 32 8)" fill="none" stroke="black" stroke-width="0.1" />
<text x="32" y="16" font-size="1.5">M</text>
<text x="33.4" y="16.7" font-size="1">10</text>
<use xlink:href="#d44" x="0" y="0" transform="matrix(0.8660254037844388 0.49999999999999967 0.49999999999999967 -0.8660254037844388 40 8)" fill="none" stroke="black" stroke-width="0.05" />
<use xlink:href="#d45" x="0" y="0" transform="matrix(0.8660254037844388 0.49999999999999967 0.49999999999999967 -0.8660254037844388 40 8)" fill="none" stroke="cyan" stroke-width="0.1" />
<use xlink:href="#d46" x="0" y="0" transform="matrix(0.8660254037844388 0.49999999999999967 0.49999999999999967 -0.8660254037844388 40 8)" fill="none" stroke="cyan" stroke-width="0.1" />
<use xlink:href="#d47" x="0" y="0" transform="matrix(0.8660254037844388 0.49999999999999967 0.49999999999999967 -0.8660254037844388 40 8)" fill="none" stroke="black" stroke-width="0.1" />
<text x="40" y="16" font-size="1.5">M</text>
<text x="41.4" y="16.7" font-size="1">12</text>
</svg>