<?xml version="1.0" encoding="UTF-8"?>
<svg xmlns="http://www.w3.org/2000/svg" xmlns:xlink="http://www.w3.org/1999/xlink"
     width="50" height="50" viewBox="-25.0 -25.0 50 50">
<defs>
<path d="M2.4,1.5000000000000002 L1.8,-1.0392304845413263" id="d0" />
<path d="M2.4,1.5000000000000002 L4.899038105676658,2.25" id="d1" />
<path d="M2.4,1.5000000000000002 L0.500961894323342,3.289230484541327" id="d2" />
<path d="M0.500961894323342,3.289230484541327 L0.5009618943233418,1.789230484541327 L1.7999999999999994,1.0392304845413263 L1.1999999999999988,2.220446049250313e-16" id="d3" />
<path d="M0,0 L1.2,0.0 L1.8,-1.0392304845413263 L3.099038105676658,-0.2892304845413264 L3.099038105676658,1.2107695154586735 L4.299038105676658,1.2107695154586735 L4.899038105676658,2.25 L3.5999999999999996,3.0 L2.3009618943233416,2.2500000000000004 L1.700961894323342,3.289230484541327 L0.500961894323342,3.289230484541327 L-0.6990381056766579,3.289230484541327 L-1.2990381056766584,2.250000000000001 L-8.881784197001252e-16,1.5000000000000002 L-1.1637239495082797e-15,2.220446049250313e-16 Z" id="d4" />
<path d="M0,0 L3.099038105676658,1.2107695154586735 L0.500961894323342,3.289230484541327 Z" id="d5" />
<path d="M1.8601154273188008,2.6447076581449593 L2.111769145362398,2.000584683710082 L1.4281154273188008,2.1047076581449593" id="d6" />
<path d="M3.0,1.2 L2.25,-1.299038105676658" id="d7" />
<path d="M3.0,1.2 L5.539230484541326,1.7999999999999998" id="d8" />
<path d="M3.0,1.2 L1.210769515458674,3.099038105676658" id="d9" />
<path d="M1.210769515458674,3.099038105676658 L1.2107695154586737,1.8990381056766579 L2.25,1.2990381056766573 L1.4999999999999993,-4.440892098500626e-16" id="d10" />
<path d="M0,0 L1.5,0.0 L2.25,-1.299038105676658 L3.2892304845413265,-0.6990381056766581 L3.2892304845413265,0.5009618943233418 L4.789230484541326,0.5009618943233418 L5.539230484541326,1.7999999999999998 L4.5,2.3999999999999995 L3.4607695154586735,1.7999999999999998 L2.710769515458674,3.099038105676658 L1.210769515458674,3.099038105676658 L-0.28923048454132605,3.099038105676658 L-1.0392304845413267,1.8 L-6.661338147750939e-16,1.1999999999999995 L-8.865702386216175e-16,-4.440892098500626e-16 Z" id="d11" />
<path d="M0,0 L3.2892304845413265,0.5009618943233418 L1.210769515458674,3.099038105676658 Z" id="d12" />
<path d="M2.3952923418550407,2.171884572681199 L2.499415316289918,1.488230854637602 L1.8552923418550407,1.739884572681199" id="d13" />
<path d="M3.0,1.2 L2.25,-1.299038105676658" id="d14" />
<path d="M3.0,1.2 L5.539230484541326,1.7999999999999998" id="d15" />
<path d="M3.0,1.2 L1.210769515458674,3.099038105676658" id="d16" />
<path d="M1.210769515458674,3.099038105676658 L1.2107695154586737,1.8990381056766579 L2.25,1.2990381056766573 L1.4999999999999993,-4.440892098500626e-16" id="d17" />
<path d="M0,0 L1.5,0.0 L2.25,-1.299038105676658 L3.2892304845413265,-0.6990381056766581 L3.2892304845413265,0.5009618943233418 L4.789230484541326,0.5009618943233418 L5.539230484541326,1.7999999999999998 L4.5,2.3999999999999995 L3.4607695154586735,1.7999999999999998 L2.710769515458674,3.099038105676658 L1.210769515458674,3.099038105676658 L-0.28923048454132605,3.099038105676658 L-1.0392304845413267,1.8 L-6.661338147750939e-16,1.1999999999999995 L-8.865702386216175e-16,-4.440892098500626e-16 Z" id="d18" />
<path d="M0,0 L3.2892304845413265,0.5009618943233418 L1.210769515458674,3.099038105676658 Z" id="d19" />
<path d="M2.3952923418550407,2.171884572681199 L2.499415316289918,1.488230854637602 L1.8552923418550407,1.739884572681199" id="d20" />
<path d="M3.0,1.2 L2.25,-1.299038105676658" id="d21" />
<path d="M3.0,1.2 L5.539230484541326,1.7999999999999998" id="d22" />
<path d="M3.0,1.2 L1.210769515458674,3.099038105676658" id="d23" />
<path d="M1.210769515458674,3.099038105676658 L1.2107695154586737,1.8990381056766579 L2.25,1.2990381056766573 L1.4999999999999993,-4.440892098500626e-16" id="d24" />
<path d="M0,0 L1.5,0.0 L2.25,-1.299038105676658 L3.2892304845413265,-0.6990381056766581 L3.2892304845413265,0.5009618943233418 L4.789230484541326,0.5009618943233418 L5.539230484541326,1.7999999999999998 L4.5,2.3999999999999995 L3.4607695154586735,1.7999999999999998 L2.710769515458674,3.099038105676658 L1.210769515458674,3.099038105676658 L-0.28923048454132605,3.099038105676658 L-1.0392304845413267,1.8 L-6.661338147750939e-16,1.1999999999999995 L-8.865702386216175e-16,-4.440892098500626e-16 Z" id="d25" />
<path d="M0,0 L3.2892304845413265,0.5009618943233418 L1.210769515458674,3.099038105676658 Z" id="d26" />
<path d="M2.3952923418550407,2.171884572681199 L2.499415316289918,1.488230854637602 L1.8552923418550407,1.739884572681199" id="d27" />
<path d="M3.0,1.2 L2.25,-1.299038105676658" id="d28" />
<path d="M3.0,1.2 L5.539230484541326,1.7999999999999998" id="d29" />
<path d="M3.0,1.2 L1.210769515458674,3.099038105676658" id="d30" />
<path d="M1.210769515458674,3.099038105676658 L1.2107695154586737,1.8990381056766579 L2.25,1.2990381056766573 L1.4999999999999993,-4.440892098500626e-16" id="d31" />
<path d="M0,0 L1.5,0.0 L2.25,-1.299038105676658 L3.2892304845413265,-0.6990381056766581 L3.2892304845413265,0.5009618943233418 L4.789230484541326,0.5009618943233418 L5.539230484541326,1.7999999999999998 L4.5,2.3999999999999995 L3.4607695154586735,1.7999999999999998 L2.710769515458674,3.099038105676658 L1.210769515458674,3.099038105676658 L-0.28923048454132605,3.099038105676658 L-1.0392304845413267,1.8 L-6.661338147750939e-16,1.1999999999999995 L-8.865702386216175e-16,-4.440892098500626e-16 Z" id="d32" />
<path d="M0,0 L3.2892304845413265,0.5009618943233418 L1.210769515458674,3.099038105676658 Z" id="d33" />
<path d="M2.3952923418550407,2.171884572681199 L2.499415316289918,1.488230854637602 L1.8552923418550407,1.739884572681199" id="d34" />
<path d="M3.0,1.2 L2.25,-1.299038105676658" id="d35" />
<path d="M3.0,1.2 L5.539230484541326,1.7999999999999998" id="d36" />
<path d="M3.0,1.2 L1.210769515458674,3.099038105676658" id="d37" />
<path d="M1.210769515458674,3.099038105676658 L1.2107695154586737,1.8990381056766579 L2.25,1.2990381056766573 L1.4999999999999993,-4.440892098500626e-16" id="d38" />
<path d="M0,0 L1.5,0.0 L2.25,-1.299038105676658 L3.2892304845413265,-0.6990381056766581 L3.2892304845413265,0.5009618943233418 L4.789230484541326,0.5009618943233418 L5.539230484541326,1.7999999999999998 L4.5,2.3999999999999995 L3.4607695154586735,1.7999999999999998 L2.710769515458674,3.099038105676658 L1.210769515458674,3.099038105676658 L-0.28923048454132605,3.099038105676658 L-1.0392304845413267,1.8 L-6.661338147750939e-16,1.1999999999999995 L-8.865702386216175e-16,-4.440892098500626e-16 Z" id="d39" />
<path d="M0,0 L3.2892304845413265,0.5009618943233418 L1.210769515458674,3.099038105676658 Z" id="d40" />
<path d="M2.3952923418550407,2.171884572681199 L2.499415316289918,1.488230854637602 L1.8552923418550407,1.739884572681199" id="d41" />
<path d="M3.0,1.2 L2.25,-1.299038105676658" id="d42" />
<path d="M3.0,1.2 L5.539230484541326,1.7999999999999998" id="d43" />
<path d="M3.0,1.2 L1.210769515458674,3.099038105676658" id="d44" />
<path d="M1.210769515458674,3.099038105676658 L1.2107695154586737,1.8990381056766579 L2.25,1.2990381056766573 L1.4999999999999993,-4.440892098500626e-16" id="d45" />
<path d="M0,0 L1.5,0.0 L2.25,-1.299038105676658 L3.2892304845413265,-0.6990381056766581 L3.2892304845413265,0.5009618943233418 L4.789230484541326,0.5009618943233418 L5.539230484541326,1.7999999999999998 L4.5,2.3999999999999995 L3.4607695154586735,1.7999999999999998 L2.710769515458674,3.099038105676658 L1.210769515458674,3.099038105676658 L-0.28923048454132605,3.099038105676658 L-1.0392304845413267,1.8 L-6.661338147750939e-16,1.1999999999999995 L-8.865702386216175e-16,-4.440892098500626e-16 Z" id="d46" />
<path d="M0,0 L3.2892304845413265,0.5009618943233418 L1.210769515458674,3.099038105676658 Z" id="d47" />
<path d="M2.3952923418550407,2.171884572681199 L2.499415316289918,1.488230854637602 L1.8552923418550407,1.739884572681199" id="d48" />
</defs>
<use xlink:href="#d0" x="0" y="0" transform="matrix(1 0 0 -1 0 0)" fill="none" stroke="black" stroke-opacity="0.3" stroke-width="0.05" />
<use xlink:href="#d1" x="0" y="0" transform="matrix(1 0 0 -1 0 0)" fill="none" stroke="black" stroke-opacity="0.3" stroke-width="0.05" />
<use xlink:href="#d2" x="0" y="0" transform="matrix(1 0 0 -1 0 0)" fill="none" stroke="black" stroke-opacity="0.3" stroke-width="0.05" />
<use xlink:href="#d3" x="0" y="0" transform="matrix(1 0 0 -1 0 0)" fill="none" stroke="black" stroke-width="0.05" />
<use xlink:href="#d4" x="0" y="0" transform="matrix(1 0 0 -1 0 0)" fill="none" stroke="black" stroke-width="0.1" />
<use xlink:href="#d5" x="0" y="0" transform="matrix(1 0 0 -1 0 0)" fill="none" stroke="magenta" stroke-width="0.1" />
<use xlink:href="#d6" x="0" y="0" transform="matrix(1 0 0 -1 0 0)" fill="none" stroke="magenta" stroke-width="0.1" />
<use xlink:href="#d7" x="0" y="0" transform="matrix(-0.8660254037844385 0.5000000000000003 0.5000000000000003 0.8660254037844385 1.8 1.0392304845413263)" fill="none" stroke="black" stroke-opacity="0.3" stroke-width="0.05" />
<use xlink:href="#d8" x="0" y="0" transform="matrix(-0.8660254037844385 0.5000000000000003 0.5000000000000003 0.8660254037844385 1.8 1.0392304845413263)" fill="none" stroke="black" stroke-opacity="0.3" stroke-width="0.05" />
<use xlink:href="#d9" x="0" y="0" transform="matrix(-0.8660254037844385 0.5000000000000003 0.5000000000000003 0.8660254037844385 1.8 1.0392304845413263)" fill="none" stroke="black" stroke-opacity="0.3" stroke-width="0.05" />
<use xlink:href="#d10" x="0" y="0" transform="matrix(-0.8660254037844385 0.5000000000000003 0.5000000000000003 0.8660254037844385 1.8 1.0392304845413263)" fill="none" stroke="black" stroke-width="0.05" />
<use xlink:href="#d11" x="0" y="0" transform="matrix(-0.8660254037844385 0.5000000000000003 0.5000000000000003 0.8660254037844385 1.8 1.0392304845413263)" fill="none" stroke="black" stroke-width="0.1" />
<use xlink:href="#d12" x="0" y="0" transform="matrix(-0.8660254037844385 0.5000000000000003 0.5000000000000003 0.8660254037844385 1.8 1.0392304845413263)" fill="none" stroke="cyan" stroke-width="0.1" />
<use xlink:href="#d13" x="0" y="0" transform="matrix(-0.8660254037844385 0.5000000000000003 0.5000000000000003 0.8660254037844385 1.8 1.0392304845413263)" fill="none" stroke="cyan" stroke-width="0.1" />
<use xlink:href="#d14" x="0" y="0" transform="matrix(6.123233995736766e-17 1.0 1.0 -6.123233995736766e-17 3.0990381056766587 -1.210769515458673)" fill="none" stroke="black" stroke-opacity="0.3" stroke-width="0.05" />
<use xlink:href="#d15" x="0" y="0" transform="matrix(6.123233995736766e-17 1.0 1.0 -6.123233995736766e-17 3.0990381056766587 -1.210769515458673)" fill="none" stroke="black" stroke-opacity="0.3" stroke-width="0.05" />
<use xlink:href="#d16" x="0" y="0" transform="matrix(6.123233995736766e-17 1.0 1.0 -6.123233995736766e-17 3.0990381056766587 -1.210769515458673)" fill="none" stroke="black" stroke-opacity="0.3" stroke-width="0.05" />
<use xlink:href="#d17" x="0" y="0" transform="matrix(6.123233995736766e-17 1.0 1.0 -6.123233995736766e-17 3.0990381056766587 -1.210769515458673)" fill="none" stroke="black" stroke-width="0.05" />
<use xlink:href="#d18" x="0" y="0" transform="matrix(6.123233995736766e-17 1.0 1.0 -6.123233995736766e-17 3.0990381056766587 -1.210769515458673)" fill="none" stroke="black" stroke-width="0.1" />
<use xlink:href="#d19" x="0" y="0" transform="matrix(6.123233995736766e-17 1.0 1.0 -6.123233995736766e-17 3.0990381056766587 -1.210769515458673)" fill="none" stroke="cyan" stroke-width="0.1" />
<use xlink:href="#d20" x="0" y="0" transform="matrix(6.123233995736766e-17 1.0 1.0 -6.123233995736766e-17 3.0990381056766587 -1.210769515458673)" fill="none" stroke="cyan" stroke-width="0.1" />
<use xlink:href="#d21" x="0" y="0" transform="matrix(0.8660254037844387 0.49999999999999994 0.49999999999999994 -0.8660254037844387 4.899038105676658 -2.25)" fill="none" stroke="black" stroke-opacity="0.3" stroke-width="0.05" />
<use xlink:href="#d22" x="0" y="0" transform="matrix(0.8660254037844387 0.49999999999999994 0.49999999999999994 -0.8660254037844387 4.899038105676658 -2.25)" fill="none" stroke="black" stroke-opacity="0.3" stroke-width="0.05" />
<use xlink:href="#d23" x="0" y="0" transform="matrix(0.8660254037844387 0.49999999999999994 0.49999999999999994 -0.8660254037844387 4.899038105676658 -2.25)" fill="none" stroke="black" stroke-opacity="0.3" stroke-width="0.05" />
<use xlink:href="#d24" x="0" y="0" transform="matrix(0.8660254037844387 0.49999999999999994 0.49999999999999994 -0.8660254037844387 4.899038105676658 -2.25)" fill="none" stroke="black" stroke-width="0.05" />
<use xlink:href="#d25" x="0" y="0" transform="matrix(0.8660254037844387 0.49999999999999994 0.49999999999999994 -0.8660254037844387 4.899038105676658 -2.25)" fill="none" stroke="black" stroke-width="0.1" />
<use xlink:href="#d26" x="0" y="0" transform="matrix(0.8660254037844387 0.49999999999999994 0.49999999999999994 -0.8660254037844387 4.899038105676658 -2.25)" fill="none" stroke="cyan" stroke-width="0.1" />
<use xlink:href="#d27" x="0" y="0" transform="matrix(0.8660254037844387 0.49999999999999994 0.49999999999999994 -0.8660254037844387 4.899038105676658 -2.25)" fill="none" stroke="cyan" stroke-width="0.1" />
<use xlink:href="#d28" x="0" y="0" transform="matrix(0.8660254037844387 -0.49999999999999994 -0.49999999999999994 -0.8660254037844387 2.3009618943233416 -2.2500000000000004)" fill="none" stroke="black" stroke-opacity="0.3" stroke-width="0.05" />
<use xlink:href="#d29" x="0" y="0" transform="matrix(0.8660254037844387 -0.49999999999999994 -0.49999999999999994 -0.8660254037844387 2.3009618943233416 -2.2500000000000004)" fill="none" stroke="black" stroke-opacity="0.3" stroke-width="0.05" />
<use xlink:href="#d30" x="0" y="0" transform="matrix(0.8660254037844387 -0.49999999999999994 -0.49999999999999994 -0.8660254037844387 2.3009618943233416 -2.2500000000000004)" fill="none" stroke="black" stroke-opacity="0.3" stroke-width="0.05" />
<use xlink:href="#d31" x="0" y="0" transform="matrix(0.8660254037844387 -0.49999999999999994 -0.49999999999999994 -0.8660254037844387 2.3009618943233416 -2.2500000000000004)" fill="none" stroke="black" stroke-width="0.05" />
<use xlink:href="#d32" x="0" y="0" transform="matrix(0.8660254037844387 -0.49999999999999994 -0.49999999999999994 -0.8660254037844387 2.3009618943233416 -2.2500000000000004)" fill="none" stroke="black" stroke-width="0.1" />
<use xlink:href="#d33" x="0" y="0" transform="matrix(0.8660254037844387 -0.49999999999999994 -0.49999999999999994 -0.8660254037844387 2.3009618943233416 -2.2500000000000004)" fill="none" stroke="cyan" stroke-width="0.1" />
<use xlink:href="#d34" x="0" y="0" transform="matrix(0.8660254037844387 -0.49999999999999994 -0.49999999999999994 -0.8660254037844387 2.3009618943233416 -2.2500000000000004)" fill="none" stroke="cyan" stroke-width="0.1" />
<use xlink:href="#d35" x="0" y="0" transform="matrix(-1.8369701987210297e-16 -1.0 -1.0 1.8369701987210297e-16 0.5009618943233434 -3.289230484541326)" fill="none" stroke="black" stroke-opacity="0.3" stroke-width="0.05" />
<use xlink:href="#d36" x="0" y="0" transform="matrix(-1.8369701987210297e-16 -1.0 -1.0 1.8369701987210297e-16 0.5009618943233434 -3.289230484541326)" fill="none" stroke="black" stroke-opacity="0.3" stroke-width="0.05" />
<use xlink:href="#d37" x="0" y="0" transform="matrix(-1.8369701987210297e-16 -1.0 -1.0 1.8369701987210297e-16 0.5009618943233434 -3.289230484541326)" fill="none" stroke="black" stroke-opacity="0.3" stroke-width="0.05" />
<use xlink:href="#d38" x="0" y="0" transform="matrix(-1.8369701987210297e-16 -1.0 -1.0 1.8369701987210297e-16 0.5009618943233434 -3.289230484541326)" fill="none" stroke="black" stroke-width="0.05" />
<use xlink:href="#d39" x="0" y="0" transform="matrix(-1.8369701987210297e-16 -1.0 -1.0 1.8369701987210297e-16 0.5009618943233434 -3.289230484541326)" fill="none" stroke="black" stroke-width="0.1" />
<use xlink:href="#d40" x="0" y="0" transform="matrix(-1.8369701987210297e-16 -1.0 -1.0 1.8369701987210297e-16 0.5009618943233434 -3.289230484541326)" fill="none" stroke="cyan" stroke-width="0.1" />
<use xlink:href="#d41" x="0" y="0" transform="matrix(-1.8369701987210297e-16 -1.0 -1.0 1.8369701987210297e-16 0.5009618943233434 -3.289230484541326)" fill="none" stroke="cyan" stroke-width="0.1" />
<use xlink:href="#d42" x="0" y="0" transform="matrix(0.8660254037844387 0.49999999999999994 0.49999999999999994 -0.8660254037844387 -3.897114317029975 -0.1715390309173488)" fill="none" stroke="black" stroke-opacity="0.3" stroke-width="0.05" />
<use xlink:href="#d43" x="0" y="0" transform="matrix(0.8660254037844387 0.49999999999999994 0.49999999999999994 -0.8660254037844387 -3.897114317029975 -0.1715390309173488)" fill="none" stroke="black" stroke-opacity="0.3" stroke-width="0.05" />
<use xlink:href="#d44" x="0" y="0" transform="matrix(0.8660254037844387 0.49999999999999994 0.49999999999999994 -0.8660254037844387 -3.897114317029975 -0.1715390309173488)" fill="none" stroke="black" stroke-opacity="0.3" stroke-width="0.05" />
<use xlink:href="#d45" x="0" y="0" transform="matrix(0.8660254037844387 0.49999999999999994 0.49999999999999994 -0.8660254037844387 -3.897114317029975 -0.1715390309173488)" fill="none" stroke="black" stroke-width="0.05" />
<use xlink:href="#d46" x="0" y="0" transform="matrix(0.8660254037844387 0.49999999999999994 0.49999999999999994 -0.8660254037844387 -3.897114317029975 -0.1715390309173488)" fill="none" stroke="black" stroke-width="0.1" />
<use xlink:href="#d47" x="0" y="0" transform="matrix(0.8660254037844387 0.49999999999999994 0.49999999999999994 -0.8660254037844387 -3.897114317029975 -0.1715390309173488)" fill="none" stroke="cyan" stroke-width="0.1" />
<use xlink:href="#d48" x="0" y="0" transform="matrix(0.8660254037844387 0.49999999999999994 0.49999999999999994 -0.8660254037844387 -3.897114317029975 -0.1715390309173488)" fill="none" stroke="cyan" stroke-width="0.1" />
<circle cx="-2.598076211353316" cy="-4.500000000000002" r="0.25" fill="rgb(0, 255, 0)" />
<circle cx="7.497114317029974" cy="-4.328460969082652" r="0.25" fill="rgb(0, 255, 0)" />
<circle cx="2.30096189432334" cy="4.328460969082653" r="0.25" fill="rgb(0, 255, 0)" />
<circle cx="2.399999999999999" cy="-1.5000000000000002" r="0.1" fill="rgb(0, 255, 0)" />
</svg>