<?xml version="1.0" encoding="UTF-8"?>
<svg xmlns="http://www.w3.org/2000/svg" xmlns:xlink="http://www.w3.org/1999/xlink"
     width="50" height="50" viewBox="-25.0 -25.0 50 50">
<defs>
<path d="M4.000000000000001,0.6000000000000001 L3.0,-1.7320508075688772" id="d0" />
<path d="M4.000000000000001,0.6000000000000001 L6.519615242270663,0.8999999999999998" id="d1" />
<path d="M4.000000000000001,0.6000000000000001 L2.480384757729338,2.6320508075688775" id="d2" />
<path d="M2.480384757729338,2.6320508075688775 L2.480384757729338,2.0320508075688775 L3.000000000000001,1.7320508075688772 L2.0,2.220446049250313e-16" id="d3" />
<path d="M0,0 L2.0,0.0 L3.0,-1.7320508075688772 L3.519615242270663,-1.4320508075688774 L3.519615242270663,-0.8320508075688774 L5.519615242270663,-0.8320508075688774 L6.519615242270663,0.8999999999999998 L6.0,1.1999999999999997 L5.480384757729337,0.8999999999999999 L4.480384757729338,2.632050807568877 L2.480384757729338,2.6320508075688775 L0.48038475772933786,2.632050807568878 L-0.519615242270663,0.900000000000001 L0.0,0.6000000000000008 L-1.1021821192326178e-16,7.771561172376096e-16 Z" id="d4" />
<path d="M0,0 L3.519615242270663,-0.8320508075688774 L2.480384757729338,2.6320508075688775 Z" id="d5" />
<path d="M3.297646170927521,1.2158460969082652 L3.1247076581449593,0.4843078061834696 L2.577646170927521,0.9998460969082654" id="d6" />
<path d="M1.2000000000000002,2.0000000000000004 L0.9,-0.5196152422706631" id="d7" />
<path d="M1.2000000000000002,2.0000000000000004 L3.5320508075688775,3.0" id="d8" />
<path d="M1.2000000000000002,2.0000000000000004 L-0.8320508075688775,3.519615242270664" id="d9" />
<path d="M-0.8320508075688775,3.519615242270664 L-0.8320508075688778,1.519615242270664 L0.8999999999999989,0.519615242270663 L0.5999999999999986,0.0" id="d10" />
<path d="M0,0 L0.6,0.0 L0.9,-0.5196152422706631 L2.6320508075688775,0.48038475772933675 L2.6320508075688775,2.480384757729337 L3.2320508075688776,2.480384757729337 L3.5320508075688775,3.0 L1.8,4.0 L0.06794919243112241,3.0000000000000004 L-0.23205080756887747,3.519615242270664 L-0.8320508075688775,3.519615242270664 L-1.4320508075688774,3.519615242270664 L-1.7320508075688776,3.000000000000001 L-8.881784197001252e-16,2.0 L-1.255572459444331e-15,0.0 Z" id="d11" />
<path d="M0,0 L2.6320508075688775,2.480384757729337 L-0.8320508075688775,3.519615242270664 Z" id="d12" />
<path d="M0.8001539030917348,3.4223538290724798 L1.3156921938165307,2.875292341855041 L0.5841539030917346,2.70235382907248" id="d13" />
<path d="M1.2000000000000002,2.0000000000000004 L0.9,-0.5196152422706631" id="d14" />
<path d="M1.2000000000000002,2.0000000000000004 L3.5320508075688775,3.0" id="d15" />
<path d="M1.2000000000000002,2.0000000000000004 L-0.8320508075688775,3.519615242270664" id="d16" />
<path d="M-0.8320508075688775,3.519615242270664 L-0.8320508075688778,1.519615242270664 L0.8999999999999989,0.519615242270663 L0.5999999999999986,0.0" id="d17" />
<path d="M0,0 L0.6,0.0 L0.9,-0.5196152422706631 L2.6320508075688775,0.48038475772933675 L2.6320508075688775,2.480384757729337 L3.2320508075688776,2.480384757729337 L3.5320508075688775,3.0 L1.8,4.0 L0.06794919243112241,3.0000000000000004 L-0.23205080756887747,3.519615242270664 L-0.8320508075688775,3.519615242270664 L-1.4320508075688774,3.519615242270664 L-1.7320508075688776,3.000000000000001 L-8.881784197001252e-16,2.0 L-1.255572459444331e-15,0.0 Z" id="d18" />
<path d="M0,0 L2.6320508075688775,2.480384757729337 L-0.8320508075688775,3.519615242270664 Z" id="d19" />
<path d="M0.8001539030917348,3.4223538290724798 L1.3156921938165307,2.875292341855041 L0.5841539030917346,2.70235382907248" id="d20" />
<path d="M1.2000000000000002,2.0000000000000004 L0.9,-0.5196152422706631" id="d21" />
<path d="M1.2000000000000002,2.0000000000000004 L3.5320508075688775,3.0" id="d22" />
<path d="M1.2000000000000002,2.0000000000000004 L-0.8320508075688775,3.519615242270664" id="d23" />
<path d="M-0.8320508075688775,3.519615242270664 L-0.8320508075688778,1.519615242270664 L0.8999999999999989,0.519615242270663 L0.5999999999999986,0.0" id="d24" />
<path d="M0,0 L0.6,0.0 L0.9,-0.5196152422706631 L2.6320508075688775,0.48038475772933675 L2.6320508075688775,2.480384757729337 L3.2320508075688776,2.480384757729337 L3.5320508075688775,3.0 L1.8,4.0 L0.06794919243112241,3.0000000000000004 L-0.23205080756887747,3.519615242270664 L-0.8320508075688775,3.519615242270664 L-1.4320508075688774,3.519615242270664 L-1.7320508075688776,3.000000000000001 L-8.881784197001252e-16,2.0 L-1.255572459444331e-15,0.0 Z" id="d25" />
<path d="M0,0 L2.6320508075688775,2.480384757729337 L-0.8320508075688775,3.519615242270664 Z" id="d26" />
<path d="M0.8001539030917348,3.4223538290724798 L1.3156921938165307,2.875292341855041 L0.5841539030917346,2.70235382907248" id="d27" />
<path d="M1.2000000000000002,2.0000000000000004 L0.9,-0.5196152422706631" id="d28" />
<path d="M1.2000000000000002,2.0000000000000004 L3.5320508075688775,3.0" id="d29" />
<path d="M1.2000000000000002,2.0000000000000004 L-0.8320508075688775,3.519615242270664" id="d30" />
<path d="M-0.8320508075688775,3.519615242270664 L-0.8320508075688778,1.519615242270664 L0.8999999999999989,0.519615242270663 L0.5999999999999986,0.0" id="d31" />
<path d="M0,0 L0.6,0.0 L0.9,-0.5196152422706631 L2.6320508075688775,0.48038475772933675 L2.6320508075688775,2.480384757729337 L3.2320508075688776,2.480384757729337 L3.5320508075688775,3.0 L1.8,4.0 L0.06794919243112241,3.0000000000000004 L-0.23205080756887747,3.519615242270664 L-0.8320508075688775,3.519615242270664 L-1.4320508075688774,3.519615242270664 L-1.7320508075688776,3.000000000000001 L-8.881784197001252e-16,2.0 L-1.255572459444331e-15,0.0 Z" id="d32" />
<path d="M0,0 L2.6320508075688775,2.480384757729337 L-0.8320508075688775,3.519615242270664 Z" id="d33" />
<path d="M0.8001539030917348,3.4223538290724798 L1.3156921938165307,2.875292341855041 L0.5841539030917346,2.70235382907248" id="d34" />
<path d="M1.2000000000000002,2.0000000000000004 L0.9,-0.5196152422706631" id="d35" />
<path d="M1.2000000000000002,2.0000000000000004 L3.5320508075688775,3.0" id="d36" />
<path d="M1.2000000000000002,2.0000000000000004 L-0.8320508075688775,3.519615242270664" id="d37" />
<path d="M-0.8320508075688775,3.519615242270664 L-0.8320508075688778,1.519615242270664 L0.8999999999999989,0.519615242270663 L0.5999999999999986,0.0" id="d38" />
<path d="M0,0 L0.6,0.0 L0.9,-0.5196152422706631 L2.6320508075688775,0.48038475772933675 L2.6320508075688775,2.480384757729337 L3.2320508075688776,2.480384757729337 L3.5320508075688775,3.0 L1.8,4.0 L0.06794919243112241,3.0000000000000004 L-0.23205080756887747,3.519615242270664 L-0.8320508075688775,3.519615242270664 L-1.4320508075688774,3.519615242270664 L-1.7320508075688776,3.000000000000001 L-8.881784197001252e-16,2.0 L-1.255572459444331e-15,0.0 Z" id="d39" />
<path d="M0,0 L2.6320508075688775,2.480384757729337 L-0.8320508075688775,3.519615242270664 Z" id="d40" />
<path d="M0.8001539030917348,3.4223538290724798 L1.3156921938165307,2.875292341855041 L0.5841539030917346,2.70235382907248" id="d41" />
<path d="M1.2000000000000002,2.0000000000000004 L0.9,-0.5196152422706631" id="d42" />
<path d="M1.2000000000000002,2.0000000000000004 L3.5320508075688775,3.0" id="d43" />
<path d="M1.2000000000000002,2.0000000000000004 L-0.8320508075688775,3.519615242270664" id="d44" />
<path d="M-0.8320508075688775,3.519615242270664 L-0.8320508075688778,1.519615242270664 L0.8999999999999989,0.519615242270663 L0.5999999999999986,0.0" id="d45" />
<path d="M0,0 L0.6,0.0 L0.9,-0.5196152422706631 L2.6320508075688775,0.48038475772933675 L2.6320508075688775,2.480384757729337 L3.2320508075688776,2.480384757729337 L3.5320508075688775,3.0 L1.8,4.0 L0.06794919243112241,3.0000000000000004 L-0.23205080756887747,3.519615242270664 L-0.8320508075688775,3.519615242270664 L-1.4320508075688774,3.519615242270664 L-1.7320508075688776,3.000000000000001 L-8.881784197001252e-16,2.0 L-1.255572459444331e-15,0.0 Z" id="d46" />
<path d="M0,0 L2.6320508075688775,2.480384757729337 L-0.8320508075688775,3.519615242270664 Z" id="d47" />
<path d="M0.8001539030917348,3.4223538290724798 L1.3156921938165307,2.875292341855041 L0.5841539030917346,2.70235382907248" id="d48" />
</defs>
<use xlink:href="#d0" x="0" y="0" transform="matrix(1 0 0 -1 0 0)" fill="none" stroke="black" stroke-opacity="0.3" stroke-width="0.05" />
<use xlink:href="#d1" x="0" y="0" transform="matrix(1 0 0 -1 0 0)" fill="none" stroke="black" stroke-opacity="0.3" stroke-width="0.05" />
<use xlink:href="#d2" x="0" y="0" transform="matrix(1 0 0 -1 0 0)" fill="none" stroke="black" stroke-opacity="0.3" stroke-width="0.05" />
<use xlink:href="#d3" x="0" y="0" transform="matrix(1 0 0 -1 0 0)" fill="none" stroke="black" stroke-width="0.05" />
<use xlink:href="#d4" x="0" y="0" transform="matrix(1 0 0 -1 0 0)" fill="none" stroke="black" stroke-width="0.1" />
<use xlink:href="#d5" x="0" y="0" transform="matrix(1 0 0 -1 0 0)" fill="none" stroke="magenta" stroke-width="0.1" />
<use xlink:href="#d6" x="0" y="0" transform="matrix(1 0 0 -1 0 0)" fill="none" stroke="magenta" stroke-width="0.1" />
<use xlink:href="#d7" x="0" y="0" transform="matrix(-0.8660254037844385 0.5000000000000003 0.5000000000000003 0.8660254037844385 3.0 1.7320508075688772)" fill="none" stroke="black" stroke-opacity="0.3" stroke-width="0.05" />
<use xlink:href="#d8" x="0" y="0" transform="matrix(-0.8660254037844385 0.5000000000000003 0.5000000000000003 0.8660254037844385 3.0 1.7320508075688772)" fill="none" stroke="black" stroke-opacity="0.3" stroke-width="0.05" />
<use xlink:href="#d9" x="0" y="0" transform="matrix(-0.8660254037844385 0.5000000000000003 0.5000000000000003 0.8660254037844385 3.0 1.7320508075688772)" fill="none" stroke="black" stroke-opacity="0.3" stroke-width="0.05" />
<use xlink:href="#d10" x="0" y="0" transform="matrix(-0.8660254037844385 0.5000000000000003 0.5000000000000003 0.8660254037844385 3.0 1.7320508075688772)" fill="none" stroke="black" stroke-width="0.05" />
<use xlink:href="#d11" x="0" y="0" transform="matrix(-0.8660254037844385 0.5000000000000003 0.5000000000000003 0.8660254037844385 3.0 1.7320508075688772)" fill="none" stroke="black" stroke-width="0.1" />
<use xlink:href="#d12" x="0" y="0" transform="matrix(-0.8660254037844385 0.5000000000000003 0.5000000000000003 0.8660254037844385 3.0 1.7320508075688772)" fill="none" stroke="cyan" stroke-width="0.1" />
<use xlink:href="#d13" x="0" y="0" transform="matrix(-0.8660254037844385 0.5000000000000003 0.5000000000000003 0.8660254037844385 3.0 1.7320508075688772)" fill="none" stroke="cyan" stroke-width="0.1" />
<use xlink:href="#d14" x="0" y="0" transform="matrix(6.123233995736766e-17 1.0 1.0 -6.123233995736766e-17 3.5196152422706626 0.832050807568879)" fill="none" stroke="black" stroke-opacity="0.3" stroke-width="0.05" />
<use xlink:href="#d15" x="0" y="0" transform="matrix(6.123233995736766e-17 1.0 1.0 -6.123233995736766e-17 3.5196152422706626 0.832050807568879)" fill="none" stroke="black" stroke-opacity="0.3" stroke-width="0.05" />
<use xlink:href="#d16" x="0" y="0" transform="matrix(6.123233995736766e-17 1.0 1.0 -6.123233995736766e-17 3.5196152422706626 0.832050807568879)" fill="none" stroke="black" stroke-opacity="0.3" stroke-width="0.05" />
<use xlink:href="#d17" x="0" y="0" transform="matrix(6.123233995736766e-17 1.0 1.0 -6.123233995736766e-17 3.5196152422706626 0.832050807568879)" fill="none" stroke="black" stroke-width="0.05" />
<use xlink:href="#d18" x="0" y="0" transform="matrix(6.123233995736766e-17 1.0 1.0 -6.123233995736766e-17 3.5196152422706626 0.832050807568879)" fill="none" stroke="black" stroke-width="0.1" />
<use xlink:href="#d19" x="0" y="0" transform="matrix(6.123233995736766e-17 1.0 1.0 -6.123233995736766e-17 3.5196152422706626 0.832050807568879)" fill="none" stroke="cyan" stroke-width="0.1" />
<use xlink:href="#d20" x="0" y="0" transform="matrix(6.123233995736766e-17 1.0 1.0 -6.123233995736766e-17 3.5196152422706626 0.832050807568879)" fill="none" stroke="cyan" stroke-width="0.1" />
<use xlink:href="#d21" x="0" y="0" transform="matrix(0.8660254037844387 0.49999999999999994 0.49999999999999994 -0.8660254037844387 6.519615242270663 -0.8999999999999998)" fill="none" stroke="black" stroke-opacity="0.3" stroke-width="0.05" />
<use xlink:href="#d22" x="0" y="0" transform="matrix(0.8660254037844387 0.49999999999999994 0.49999999999999994 -0.8660254037844387 6.519615242270663 -0.8999999999999998)" fill="none" stroke="black" stroke-opacity="0.3" stroke-width="0.05" />
<use xlink:href="#d23" x="0" y="0" transform="matrix(0.8660254037844387 0.49999999999999994 0.49999999999999994 -0.8660254037844387 6.519615242270663 -0.8999999999999998)" fill="none" stroke="black" stroke-opacity="0.3" stroke-width="0.05" />
<use xlink:href="#d24" x="0" y="0" transform="matrix(0.8660254037844387 0.49999999999999994 0.49999999999999994 -0.8660254037844387 6.519615242270663 -0.8999999999999998)" fill="none" stroke="black" stroke-width="0.05" />
<use xlink:href="#d25" x="0" y="0" transform="matrix(0.8660254037844387 0.49999999999999994 0.49999999999999994 -0.8660254037844387 6.519615242270663 -0.8999999999999998)" fill="none" stroke="black" stroke-width="0.1" />
<use xlink:href="#d26" x="0" y="0" transform="matrix(0.8660254037844387 0.49999999999999994 0.49999999999999994 -0.8660254037844387 6.519615242270663 -0.8999999999999998)" fill="none" stroke="cyan" stroke-width="0.1" />
<use xlink:href="#d27" x="0" y="0" transform="matrix(0.8660254037844387 0.49999999999999994 0.49999999999999994 -0.8660254037844387 6.519615242270663 -0.8999999999999998)" fill="none" stroke="cyan" stroke-width="0.1" />
<use xlink:href="#d28" x="0" y="0" transform="matrix(0.8660254037844387 -0.49999999999999994 -0.49999999999999994 -0.8660254037844387 5.480384757729337 -0.8999999999999999)" fill="none" stroke="black" stroke-opacity="0.3" stroke-width="0.05" />
<use xlink:href="#d29" x="0" y="0" transform="matrix(0.8660254037844387 -0.49999999999999994 -0.49999999999999994 -0.8660254037844387 5.480384757729337 -0.8999999999999999)" fill="none" stroke="black" stroke-opacity="0.3" stroke-width="0.05" />
<use xlink:href="#d30" x="0" y="0" transform="matrix(0.8660254037844387 -0.49999999999999994 -0.49999999999999994 -0.8660254037844387 5.480384757729337 -0.8999999999999999)" fill="none" stroke="black" stroke-opacity="0.3" stroke-width="0.05" />
<use xlink:href="#d31" x="0" y="0" transform="matrix(0.8660254037844387 -0.49999999999999994 -0.49999999999999994 -0.8660254037844387 5.480384757729337 -0.8999999999999999)" fill="none" stroke="black" stroke-width="0.05" />
<use xlink:href="#d32" x="0" y="0" transform="matrix(0.8660254037844387 -0.49999999999999994 -0.49999999999999994 -0.8660254037844387 5.480384757729337 -0.8999999999999999)" fill="none" stroke="black" stroke-width="0.1" />
<use xlink:href="#d33" x="0" y="0" transform="matrix(0.8660254037844387 -0.49999999999999994 -0.49999999999999994 -0.8660254037844387 5.480384757729337 -0.8999999999999999)" fill="none" stroke="cyan" stroke-width="0.1" />
<use xlink:href="#d34" x="0" y="0" transform="matrix(0.8660254037844387 -0.49999999999999994 -0.49999999999999994 -0.8660254037844387 5.480384757729337 -0.8999999999999999)" fill="none" stroke="cyan" stroke-width="0.1" />
<use xlink:href="#d35" x="0" y="0" transform="matrix(-1.8369701987210297e-16 -1.0 -1.0 1.8369701987210297e-16 2.480384757729338 -2.6320508075688758)" fill="none" stroke="black" stroke-opacity="0.3" stroke-width="0.05" />
<use xlink:href="#d36" x="0" y="0" transform="matrix(-1.8369701987210297e-16 -1.0 -1.0 1.8369701987210297e-16 2.480384757729338 -2.6320508075688758)" fill="none" stroke="black" stroke-opacity="0.3" stroke-width="0.05" />
<use xlink:href="#d37" x="0" y="0" transform="matrix(-1.8369701987210297e-16 -1.0 -1.0 1.8369701987210297e-16 2.480384757729338 -2.6320508075688758)" fill="none" stroke="black" stroke-opacity="0.3" stroke-width="0.05" />
<use xlink:href="#d38" x="0" y="0" transform="matrix(-1.8369701987210297e-16 -1.0 -1.0 1.8369701987210297e-16 2.480384757729338 -2.6320508075688758)" fill="none" stroke="black" stroke-width="0.05" />
<use xlink:href="#d39" x="0" y="0" transform="matrix(-1.8369701987210297e-16 -1.0 -1.0 1.8369701987210297e-16 2.480384757729338 -2.6320508075688758)" fill="none" stroke="black" stroke-width="0.1" />
<use xlink:href="#d40" x="0" y="0" transform="matrix(-1.8369701987210297e-16 -1.0 -1.0 1.8369701987210297e-16 2.480384757729338 -2.6320508075688758)" fill="none" stroke="cyan" stroke-width="0.1" />
<use xlink:href="#d41" x="0" y="0" transform="matrix(-1.8369701987210297e-16 -1.0 -1.0 1.8369701987210297e-16 2.480384757729338 -2.6320508075688758)" fill="none" stroke="cyan" stroke-width="0.1" />
<use xlink:href="#d42" x="0" y="0" transform="matrix(0.8660254037844387 0.49999999999999994 0.49999999999999994 -0.8660254037844387 -1.5588457268119906 2.564101615137754)" fill="none" stroke="black" stroke-opacity="0.3" stroke-width="0.05" />
<use xlink:href="#d43" x="0" y="0" transform="matrix(0.8660254037844387 0.49999999999999994 0.49999999999999994 -0.8660254037844387 -1.5588457268119906 2.564101615137754)" fill="none" stroke="black" stroke-opacity="0.3" stroke-width="0.05" />
<use xlink:href="#d44" x="0" y="0" transform="matrix(0.8660254037844387 0.49999999999999994 0.49999999999999994 -0.8660254037844387 -1.5588457268119906 2.564101615137754)" fill="none" stroke="black" stroke-opacity="0.3" stroke-width="0.05" />
<use xlink:href="#d45" x="0" y="0" transform="matrix(0.8660254037844387 0.49999999999999994 0.49999999999999994 -0.8660254037844387 -1.5588457268119906 2.564101615137754)" fill="none" stroke="black" stroke-width="0.05" />
<use xlink:href="#d46" x="0" y="0" transform="matrix(0.8660254037844387 0.49999999999999994 0.49999999999999994 -0.8660254037844387 -1.5588457268119906 2.564101615137754)" fill="none" stroke="black" stroke-width="0.1" />
<use xlink:href="#d47" x="0" y="0" transform="matrix(0.8660254037844387 0.49999999999999994 0.49999999999999994 -0.8660254037844387 -1.5588457268119906 2.564101615137754)" fill="none" stroke="cyan" stroke-width="0.1" />
<use xlink:href="#d48" x="0" y="0" transform="matrix(0.8660254037844387 0.49999999999999994 0.49999999999999994 -0.8660254037844387 -1.5588457268119906 2.564101615137754)" fill="none" stroke="cyan" stroke-width="0.1" />
<circle cx="-1.0392304845413265" cy="-1.8000000000000016" r="0.25" fill="rgb(0, 255, 0)" />
<circle cx="7.55884572681199" cy="-4.364101615137755" r="0.25" fill="rgb(0, 255, 0)" />
<circle cx="5.480384757729336" cy="4.3641016151377565" r="0.25" fill="rgb(0, 255, 0)" />
<circle cx="4.0" cy="-0.6" r="0.1" fill="rgb(0, 255, 0)" />
</svg>