<?xml version="1.0" encoding="UTF-8"?>
<svg xmlns="http://www.w3.org/2000/svg" xmlns:xlink="http://www.w3.org/1999/xlink"
     width="50" height="50" viewBox="-25.0 -25.0 50 50">
<defs>
<path d="M2.600000000000001,1.0 L1.9500000000000002,-1.12583302491977" id="d0" />
<path d="M2.600000000000001,1.0 L4.76602540378444,1.5" id="d1" />
<path d="M2.600000000000001,1.0 L1.0839745962155625,2.6258330249197703" id="d2" />
<path d="M1.0839745962155625,2.6258330249197703 L1.0839745962155622,1.6258330249197703 L1.9500000000000006,1.1258330249197699 L1.3,-2.220446049250313e-16" id="d3" />
<path d="M0,0 L1.3,0.0 L1.9500000000000002,-1.12583302491977 L2.816025403784439,-0.6258330249197701 L2.816025403784439,0.3741669750802299 L4.116025403784439,0.3741669750802299 L4.76602540378444,1.5 L3.900000000000001,2.0 L3.033974596215562,1.5000000000000002 L2.3839745962155625,2.6258330249197703 L1.0839745962155625,2.6258330249197703 L-0.21602540378443758,2.6258330249197703 L-0.8660254037844382,1.5000000000000002 L2.220446049250313e-16,0.9999999999999998 L3.834758505292834e-17,-2.220446049250313e-16 Z" id="d4" />
<path d="M0,0 L2.816025403784439,0.3741669750802299 L1.0839745962155625,2.6258330249197703 Z" id="d5" />
<path d="M2.080076951545868,1.8150999629903724 L2.1578460969082656,1.2298000740192552 L1.612076951545868,1.4550999629903725" id="d6" />
<path d="M2.0,1.3 L1.5,-0.8660254037844386" id="d7" />
<path d="M2.0,1.3 L4.12583302491977,1.95" id="d8" />
<path d="M2.0,1.3 L0.37416697508022967,2.8160254037844386" id="d9" />
<path d="M0.37416697508022967,2.8160254037844386 L0.37416697508022945,1.5160254037844385 L1.4999999999999993,0.8660254037844379 L0.9999999999999989,-5.551115123125783e-16" id="d10" />
<path d="M0,0 L1.0,0.0 L1.5,-0.8660254037844386 L2.6258330249197703,-0.21602540378443869 L2.6258330249197703,1.0839745962155614 L3.6258330249197703,1.0839745962155614 L4.12583302491977,1.95 L3.0,2.5999999999999996 L1.8741669750802294,1.95 L1.3741669750802297,2.8160254037844386 L0.37416697508022967,2.8160254037844386 L-0.6258330249197703,2.8160254037844386 L-1.1258330249197708,1.9500000000000002 L-8.881784197001252e-16,1.2999999999999996 L-1.126984545533859e-15,-4.440892098500626e-16 Z" id="d11" />
<path d="M0,0 L2.6258330249197703,1.0839745962155614 L0.37416697508022967,2.8160254037844386 Z" id="d12" />
<path d="M1.5449000370096275,2.2879230484541324 L1.7701999259807448,1.7421539030917348 L1.1849000370096276,1.8199230484541324" id="d13" />
<path d="M2.0,1.3 L1.5,-0.8660254037844386" id="d14" />
<path d="M2.0,1.3 L4.12583302491977,1.95" id="d15" />
<path d="M2.0,1.3 L0.37416697508022967,2.8160254037844386" id="d16" />
<path d="M0.37416697508022967,2.8160254037844386 L0.37416697508022945,1.5160254037844385 L1.4999999999999993,0.8660254037844379 L0.9999999999999989,-5.551115123125783e-16" id="d17" />
<path d="M0,0 L1.0,0.0 L1.5,-0.8660254037844386 L2.6258330249197703,-0.21602540378443869 L2.6258330249197703,1.0839745962155614 L3.6258330249197703,1.0839745962155614 L4.12583302491977,1.95 L3.0,2.5999999999999996 L1.8741669750802294,1.95 L1.3741669750802297,2.8160254037844386 L0.37416697508022967,2.8160254037844386 L-0.6258330249197703,2.8160254037844386 L-1.1258330249197708,1.9500000000000002 L-8.881784197001252e-16,1.2999999999999996 L-1.126984545533859e-15,-4.440892098500626e-16 Z" id="d18" />
<path d="M0,0 L2.6258330249197703,1.0839745962155614 L0.37416697508022967,2.8160254037844386 Z" id="d19" />
<path d="M1.5449000370096275,2.2879230484541324 L1.7701999259807448,1.7421539030917348 L1.1849000370096276,1.8199230484541324" id="d20" />
<path d="M2.0,1.3 L1.5,-0.8660254037844386" id="d21" />
<path d="M2.0,1.3 L4.12583302491977,1.95" id="d22" />
<path d="M2.0,1.3 L0.37416697508022967,2.8160254037844386" id="d23" />
<path d="M0.37416697508022967,2.8160254037844386 L0.37416697508022945,1.5160254037844385 L1.4999999999999993,0.8660254037844379 L0.9999999999999989,-5.551115123125783e-16" id="d24" />
<path d="M0,0 L1.0,0.0 L1.5,-0.8660254037844386 L2.6258330249197703,-0.21602540378443869 L2.6258330249197703,1.0839745962155614 L3.6258330249197703,1.0839745962155614 L4.12583302491977,1.95 L3.0,2.5999999999999996 L1.8741669750802294,1.95 L1.3741669750802297,2.8160254037844386 L0.37416697508022967,2.8160254037844386 L-0.6258330249197703,2.8160254037844386 L-1.1258330249197708,1.9500000000000002 L-8.881784197001252e-16,1.2999999999999996 L-1.126984545533859e-15,-4.440892098500626e-16 Z" id="d25" />
<path d="M0,0 L2.6258330249197703,1.0839745962155614 L0.37416697508022967,2.8160254037844386 Z" id="d26" />
<path d="M1.5449000370096275,2.2879230484541324 L1.7701999259807448,1.7421539030917348 L1.1849000370096276,1.8199230484541324" id="d27" />
<path d="M2.0,1.3 L1.5,-0.8660254037844386" id="d28" />
<path d="M2.0,1.3 L4.12583302491977,1.95" id="d29" />
<path d="M2.0,1.3 L0.37416697508022967,2.8160254037844386" id="d30" />
<path d="M0.37416697508022967,2.8160254037844386 L0.37416697508022945,1.5160254037844385 L1.4999999999999993,0.8660254037844379 L0.9999999999999989,-5.551115123125783e-16" id="d31" />
<path d="M0,0 L1.0,0.0 L1.5,-0.8660254037844386 L2.6258330249197703,-0.21602540378443869 L2.6258330249197703,1.0839745962155614 L3.6258330249197703,1.0839745962155614 L4.12583302491977,1.95 L3.0,2.5999999999999996 L1.8741669750802294,1.95 L1.3741669750802297,2.8160254037844386 L0.37416697508022967,2.8160254037844386 L-0.6258330249197703,2.8160254037844386 L-1.1258330249197708,1.9500000000000002 L-8.881784197001252e-16,1.2999999999999996 L-1.126984545533859e-15,-4.440892098500626e-16 Z" id="d32" />
<path d="M0,0 L2.6258330249197703,1.0839745962155614 L0.37416697508022967,2.8160254037844386 Z" id="d33" />
<path d="M1.5449000370096275,2.2879230484541324 L1.7701999259807448,1.7421539030917348 L1.1849000370096276,1.8199230484541324" id="d34" />
<path d="M2.0,1.3 L1.5,-0.8660254037844386" id="d35" />
<path d="M2.0,1.3 L4.12583302491977,1.95" id="d36" />
<path d="M2.0,1.3 L0.37416697508022967,2.8160254037844386" id="d37" />
<path d="M0.37416697508022967,2.8160254037844386 L0.37416697508022945,1.5160254037844385 L1.4999999999999993,0.8660254037844379 L0.9999999999999989,-5.551115123125783e-16" id="d38" />
<path d="M0,0 L1.0,0.0 L1.5,-0.8660254037844386 L2.6258330249197703,-0.21602540378443869 L2.6258330249197703,1.0839745962155614 L3.6258330249197703,1.0839745962155614 L4.12583302491977,1.95 L3.0,2.5999999999999996 L1.8741669750802294,1.95 L1.3741669750802297,2.8160254037844386 L0.37416697508022967,2.8160254037844386 L-0.6258330249197703,2.8160254037844386 L-1.1258330249197708,1.9500000000000002 L-8.881784197001252e-16,1.2999999999999996 L-1.126984545533859e-15,-4.440892098500626e-16 Z" id="d39" />
<path d="M0,0 L2.6258330249197703,1.0839745962155614 L0.37416697508022967,2.8160254037844386 Z" id="d40" />
<path d="M1.5449000370096275,2.2879230484541324 L1.7701999259807448,1.7421539030917348 L1.1849000370096276,1.8199230484541324" id="d41" />
<path d="M2.0,1.3 L1.5,-0.8660254037844386" id="d42" />
<path d="M2.0,1.3 L4.12583302491977,1.95" id="d43" />
<path d="M2.0,1.3 L0.37416697508022967,2.8160254037844386" id="d44" />
<path d="M0.37416697508022967,2.8160254037844386 L0.37416697508022945,1.5160254037844385 L1.4999999999999993,0.8660254037844379 L0.9999999999999989,-5.551115123125783e-16" id="d45" />
<path d="M0,0 L1.0,0.0 L1.5,-0.8660254037844386 L2.6258330249197703,-0.21602540378443869 L2.6258330249197703,1.0839745962155614 L3.6258330249197703,1.0839745962155614 L4.12583302491977,1.95 L3.0,2.5999999999999996 L1.8741669750802294,1.95 L1.3741669750802297,2.8160254037844386 L0.37416697508022967,2.8160254037844386 L-0.6258330249197703,2.8160254037844386 L-1.1258330249197708,1.9500000000000002 L-8.881784197001252e-16,1.2999999999999996 L-1.126984545533859e-15,-4.440892098500626e-16 Z" id="d46" />
<path d="M0,0 L2.6258330249197703,1.0839745962155614 L0.37416697508022967,2.8160254037844386 Z" id="d47" />
<path d="M1.5449000370096275,2.2879230484541324 L1.7701999259807448,1.7421539030917348 L1.1849000370096276,1.8199230484541324" id="d48" />
<path d="M2.0,1.3 L1.5,-0.8660254037844386" id="d49" />
<path d="M2.0,1.3 L4.12583302491977,1.95" id="d50" />
<path d="M2.0,1.3 L0.37416697508022967,2.8160254037844386" id="d51" />
<path d="M0.37416697508022967,2.8160254037844386 L0.37416697508022945,1.5160254037844385 L1.4999999999999993,0.8660254037844379 L0.9999999999999989,-5.551115123125783e-16" id="d52" />
<path d="M0,0 L1.0,0.0 L1.5,-0.8660254037844386 L2.6258330249197703,-0.21602540378443869 L2.6258330249197703,1.0839745962155614 L3.6258330249197703,1.0839745962155614 L4.12583302491977,1.95 L3.0,2.5999999999999996 L1.8741669750802294,1.95 L1.3741669750802297,2.8160254037844386 L0.37416697508022967,2.8160254037844386 L-0.6258330249197703,2.8160254037844386 L-1.1258330249197708,1.9500000000000002 L-8.881784197001252e-16,1.2999999999999996 L-1.126984545533859e-15,-4.440892098500626e-16 Z" id="d53" />
<path d="M0,0 L2.6258330249197703,1.0839745962155614 L0.37416697508022967,2.8160254037844386 Z" id="d54" />
<path d="M1.5449000370096275,2.2879230484541324 L1.7701999259807448,1.7421539030917348 L1.1849000370096276,1.8199230484541324" id="d55" />
<path d="M2.0,1.3 L1.5,-0.8660254037844386" id="d56" />
<path d="M2.0,1.3 L4.12583302491977,1.95" id="d57" />
<path d="M2.0,1.3 L0.37416697508022967,2.8160254037844386" id="d58" />
<path d="M0.37416697508022967,2.8160254037844386 L0.37416697508022945,1.5160254037844385 L1.4999999999999993,0.8660254037844379 L0.9999999999999989,-5.551115123125783e-16" id="d59" />
<path d="M0,0 L1.0,0.0 L1.5,-0.8660254037844386 L2.6258330249197703,-0.21602540378443869 L2.6258330249197703,1.0839745962155614 L3.6258330249197703,1.0839745962155614 L4.12583302491977,1.95 L3.0,2.5999999999999996 L1.8741669750802294,1.95 L1.3741669750802297,2.8160254037844386 L0.37416697508022967,2.8160254037844386 L-0.6258330249197703,2.8160254037844386 L-1.1258330249197708,1.9500000000000002 L-8.881784197001252e-16,1.2999999999999996 L-1.126984545533859e-15,-4.440892098500626e-16 Z" id="d60" />
<path d="M0,0 L2.6258330249197703,1.0839745962155614 L0.37416697508022967,2.8160254037844386 Z" id="d61" />
<path d="M1.5449000370096275,2.2879230484541324 L1.7701999259807448,1.7421539030917348 L1.1849000370096276,1.8199230484541324" id="d62" />
<path d="M2.0,1.3 L1.5,-0.8660254037844386" id="d63" />
<path d="M2.0,1.3 L4.12583302491977,1.95" id="d64" />
<path d="M2.0,1.3 L0.37416697508022967,2.8160254037844386" id="d65" />
<path d="M0.37416697508022967,2.8160254037844386 L0.37416697508022945,1.5160254037844385 L1.4999999999999993,0.8660254037844379 L0.9999999999999989,-5.551115123125783e-16" id="d66" />
<path d="M0,0 L1.0,0.0 L1.5,-0.8660254037844386 L2.6258330249197703,-0.21602540378443869 L2.6258330249197703,1.0839745962155614 L3.6258330249197703,1.0839745962155614 L4.12583302491977,1.95 L3.0,2.5999999999999996 L1.8741669750802294,1.95 L1.3741669750802297,2.8160254037844386 L0.37416697508022967,2.8160254037844386 L-0.6258330249197703,2.8160254037844386 L-1.1258330249197708,1.9500000000000002 L-8.881784197001252e-16,1.2999999999999996 L-1.126984545533859e-15,-4.440892098500626e-16 Z" id="d67" />
<path d="M0,0 L2.6258330249197703,1.0839745962155614 L0.37416697508022967,2.8160254037844386 Z" id="d68" />
<path d="M1.5449000370096275,2.2879230484541324 L1.7701999259807448,1.7421539030917348 L1.1849000370096276,1.8199230484541324" id="d69" />
<path d="M2.0,1.3 L1.5,-0.8660254037844386" id="d70" />
<path d="M2.0,1.3 L4.12583302491977,1.95" id="d71" />
<path d="M2.0,1.3 L0.37416697508022967,2.8160254037844386" id="d72" />
<path d="M0.37416697508022967,2.8160254037844386 L0.37416697508022945,1.5160254037844385 L1.4999999999999993,0.8660254037844379 L0.9999999999999989,-5.551115123125783e-16" id="d73" />
<path d="M0,0 L1.0,0.0 L1.5,-0.8660254037844386 L2.6258330249197703,-0.21602540378443869 L2.6258330249197703,1.0839745962155614 L3.6258330249197703,1.0839745962155614 L4.12583302491977,1.95 L3.0,2.5999999999999996 L1.8741669750802294,1.95 L1.3741669750802297,2.8160254037844386 L0.37416697508022967,2.8160254037844386 L-0.6258330249197703,2.8160254037844386 L-1.1258330249197708,1.9500000000000002 L-8.881784197001252e-16,1.2999999999999996 L-1.126984545533859e-15,-4.440892098500626e-16 Z" id="d74" />
<path d="M0,0 L2.6258330249197703,1.0839745962155614 L0.37416697508022967,2.8160254037844386 Z" id="d75" />
<path d="M1.5449000370096275,2.2879230484541324 L1.7701999259807448,1.7421539030917348 L1.1849000370096276,1.8199230484541324" id="d76" />
<path d="M2.0,1.3 L1.5,-0.8660254037844386" id="d77" />
<path d="M2.0,1.3 L4.12583302491977,1.95" id="d78" />
<path d="M2.0,1.3 L0.37416697508022967,2.8160254037844386" id="d79" />
<path d="M0.37416697508022967,2.8160254037844386 L0.37416697508022945,1.5160254037844385 L1.4999999999999993,0.8660254037844379 L0.9999999999999989,-5.551115123125783e-16" id="d80" />
<path d="M0,0 L1.0,0.0 L1.5,-0.8660254037844386 L2.6258330249197703,-0.21602540378443869 L2.6258330249197703,1.0839745962155614 L3.6258330249197703,1.0839745962155614 L4.12583302491977,1.95 L3.0,2.5999999999999996 L1.8741669750802294,1.95 L1.3741669750802297,2.8160254037844386 L0.37416697508022967,2.8160254037844386 L-0.6258330249197703,2.8160254037844386 L-1.1258330249197708,1.9500000000000002 L-8.881784197001252e-16,1.2999999999999996 L-1.126984545533859e-15,-4.440892098500626e-16 Z" id="d81" />
<path d="M0,0 L2.6258330249197703,1.0839745962155614 L0.37416697508022967,2.8160254037844386 Z" id="d82" />
<path d="M1.5449000370096275,2.2879230484541324 L1.7701999259807448,1.7421539030917348 L1.1849000370096276,1.8199230484541324" id="d83" />
<path d="M2.0,1.3 L1.5,-0.8660254037844386" id="d84" />
<path d="M2.0,1.3 L4.12583302491977,1.95" id="d85" />
<path d="M2.0,1.3 L0.37416697508022967,2.8160254037844386" id="d86" />
<path d="M0.37416697508022967,2.8160254037844386 L0.37416697508022945,1.5160254037844385 L1.4999999999999993,0.8660254037844379 L0.9999999999999989,-5.551115123125783e-16" id="d87" />
<path d="M0,0 L1.0,0.0 L1.5,-0.8660254037844386 L2.6258330249197703,-0.21602540378443869 L2.6258330249197703,1.0839745962155614 L3.6258330249197703,1.0839745962155614 L4.12583302491977,1.95 L3.0,2.5999999999999996 L1.8741669750802294,1.95 L1.3741669750802297,2.8160254037844386 L0.37416697508022967,2.8160254037844386 L-0.6258330249197703,2.8160254037844386 L-1.1258330249197708,1.9500000000000002 L-8.881784197001252e-16,1.2999999999999996 L-1.126984545533859e-15,-4.440892098500626e-16 Z" id="d88" />
<path d="M0,0 L2.6258330249197703,1.0839745962155614 L0.37416697508022967,2.8160254037844386 Z" id="d89" />
<path d="M1.5449000370096275,2.2879230484541324 L1.7701999259807448,1.7421539030917348 L1.1849000370096276,1.8199230484541324" id="d90" />
</defs>
<use xlink:href="#d0" x="0" y="0" transform="matrix(1 0 0 -1 0 0)" fill="none" stroke="black" stroke-opacity="0.3" stroke-width="0.05" />
<use xlink:href="#d1" x="0" y="0" transform="matrix(1 0 0 -1 0 0)" fill="none" stroke="black" stroke-opacity="0.3" stroke-width="0.05" />
<use xlink:href="#d2" x="0" y="0" transform="matrix(1 0 0 -1 0 0)" fill="none" stroke="black" stroke-opacity="0.3" stroke-width="0.05" />
<use xlink:href="#d3" x="0" y="0" transform="matrix(1 0 0 -1 0 0)" fill="none" stroke="black" stroke-width="0.05" />
<use xlink:href="#d4" x="0" y="0" transform="matrix(1 0 0 -1 0 0)" fill="none" stroke="black" stroke-width="0.1" />
<use xlink:href="#d5" x="0" y="0" transform="matrix(1 0 0 -1 0 0)" fill="none" stroke="magenta" stroke-width="0.1" />
<use xlink:href="#d6" x="0" y="0" transform="matrix(1 0 0 -1 0 0)" fill="none" stroke="magenta" stroke-width="0.1" />
<use xlink:href="#d7" x="0" y="0" transform="matrix(-0.8660254037844385 0.5000000000000003 0.5000000000000003 0.8660254037844385 1.9500000000000002 1.12583302491977)" fill="none" stroke="black" stroke-opacity="0.3" stroke-width="0.05" />
<use xlink:href="#d8" x="0" y="0" transform="matrix(-0.8660254037844385 0.5000000000000003 0.5000000000000003 0.8660254037844385 1.9500000000000002 1.12583302491977)" fill="none" stroke="black" stroke-opacity="0.3" stroke-width="0.05" />
<use xlink:href="#d9" x="0" y="0" transform="matrix(-0.8660254037844385 0.5000000000000003 0.5000000000000003 0.8660254037844385 1.9500000000000002 1.12583302491977)" fill="none" stroke="black" stroke-opacity="0.3" stroke-width="0.05" />
<use xlink:href="#d10" x="0" y="0" transform="matrix(-0.8660254037844385 0.5000000000000003 0.5000000000000003 0.8660254037844385 1.9500000000000002 1.12583302491977)" fill="none" stroke="black" stroke-width="0.05" />
<use xlink:href="#d11" x="0" y="0" transform="matrix(-0.8660254037844385 0.5000000000000003 0.5000000000000003 0.8660254037844385 1.9500000000000002 1.12583302491977)" fill="none" stroke="black" stroke-width="0.1" />
<use xlink:href="#d12" x="0" y="0" transform="matrix(-0.8660254037844385 0.5000000000000003 0.5000000000000003 0.8660254037844385 1.9500000000000002 1.12583302491977)" fill="none" stroke="cyan" stroke-width="0.1" />
<use xlink:href="#d13" x="0" y="0" transform="matrix(-0.8660254037844385 0.5000000000000003 0.5000000000000003 0.8660254037844385 1.9500000000000002 1.12583302491977)" fill="none" stroke="cyan" stroke-width="0.1" />
<use xlink:href="#d14" x="0" y="0" transform="matrix(0.8660254037844385 -0.5000000000000002 -0.5000000000000002 -0.8660254037844385 4.11794919243112 6.377499074759312)" fill="none" stroke="black" stroke-opacity="0.3" stroke-width="0.05" />
<use xlink:href="#d15" x="0" y="0" transform="matrix(0.8660254037844385 -0.5000000000000002 -0.5000000000000002 -0.8660254037844385 4.11794919243112 6.377499074759312)" fill="none" stroke="black" stroke-opacity="0.3" stroke-width="0.05" />
<use xlink:href="#d16" x="0" y="0" transform="matrix(0.8660254037844385 -0.5000000000000002 -0.5000000000000002 -0.8660254037844385 4.11794919243112 6.377499074759312)" fill="none" stroke="black" stroke-opacity="0.3" stroke-width="0.05" />
<use xlink:href="#d17" x="0" y="0" transform="matrix(0.8660254037844385 -0.5000000000000002 -0.5000000000000002 -0.8660254037844385 4.11794919243112 6.377499074759312)" fill="none" stroke="black" stroke-width="0.05" />
<use xlink:href="#d18" x="0" y="0" transform="matrix(0.8660254037844385 -0.5000000000000002 -0.5000000000000002 -0.8660254037844385 4.11794919243112 6.377499074759312)" fill="none" stroke="black" stroke-width="0.1" />
<use xlink:href="#d19" x="0" y="0" transform="matrix(0.8660254037844385 -0.5000000000000002 -0.5000000000000002 -0.8660254037844385 4.11794919243112 6.377499074759312)" fill="none" stroke="cyan" stroke-width="0.1" />
<use xlink:href="#d20" x="0" y="0" transform="matrix(0.8660254037844385 -0.5000000000000002 -0.5000000000000002 -0.8660254037844385 4.11794919243112 6.377499074759312)" fill="none" stroke="cyan" stroke-width="0.1" />
<use xlink:href="#d21" x="0" y="0" transform="matrix(6.123233995736766e-17 1.0 1.0 -6.123233995736766e-17 2.8160254037844386 -0.3741669750802288)" fill="none" stroke="black" stroke-opacity="0.3" stroke-width="0.05" />
<use xlink:href="#d22" x="0" y="0" transform="matrix(6.123233995736766e-17 1.0 1.0 -6.123233995736766e-17 2.8160254037844386 -0.3741669750802288)" fill="none" stroke="black" stroke-opacity="0.3" stroke-width="0.05" />
<use xlink:href="#d23" x="0" y="0" transform="matrix(6.123233995736766e-17 1.0 1.0 -6.123233995736766e-17 2.8160254037844386 -0.3741669750802288)" fill="none" stroke="black" stroke-opacity="0.3" stroke-width="0.05" />
<use xlink:href="#d24" x="0" y="0" transform="matrix(6.123233995736766e-17 1.0 1.0 -6.123233995736766e-17 2.8160254037844386 -0.3741669750802288)" fill="none" stroke="black" stroke-width="0.05" />
<use xlink:href="#d25" x="0" y="0" transform="matrix(6.123233995736766e-17 1.0 1.0 -6.123233995736766e-17 2.8160254037844386 -0.3741669750802288)" fill="none" stroke="black" stroke-width="0.1" />
<use xlink:href="#d26" x="0" y="0" transform="matrix(6.123233995736766e-17 1.0 1.0 -6.123233995736766e-17 2.8160254037844386 -0.3741669750802288)" fill="none" stroke="cyan" stroke-width="0.1" />
<use xlink:href="#d27" x="0" y="0" transform="matrix(6.123233995736766e-17 1.0 1.0 -6.123233995736766e-17 2.8160254037844386 -0.3741669750802288)" fill="none" stroke="cyan" stroke-width="0.1" />
<use xlink:href="#d28" x="0" y="0" transform="matrix(6.123233995736766e-17 1.0 1.0 -6.123233995736766e-17 5.632050807568877 1.1102230246251565e-15)" fill="none" stroke="black" stroke-opacity="0.3" stroke-width="0.05" />
<use xlink:href="#d29" x="0" y="0" transform="matrix(6.123233995736766e-17 1.0 1.0 -6.123233995736766e-17 5.632050807568877 1.1102230246251565e-15)" fill="none" stroke="black" stroke-opacity="0.3" stroke-width="0.05" />
<use xlink:href="#d30" x="0" y="0" transform="matrix(6.123233995736766e-17 1.0 1.0 -6.123233995736766e-17 5.632050807568877 1.1102230246251565e-15)" fill="none" stroke="black" stroke-opacity="0.3" stroke-width="0.05" />
<use xlink:href="#d31" x="0" y="0" transform="matrix(6.123233995736766e-17 1.0 1.0 -6.123233995736766e-17 5.632050807568877 1.1102230246251565e-15)" fill="none" stroke="black" stroke-width="0.05" />
<use xlink:href="#d32" x="0" y="0" transform="matrix(6.123233995736766e-17 1.0 1.0 -6.123233995736766e-17 5.632050807568877 1.1102230246251565e-15)" fill="none" stroke="black" stroke-width="0.1" />
<use xlink:href="#d33" x="0" y="0" transform="matrix(6.123233995736766e-17 1.0 1.0 -6.123233995736766e-17 5.632050807568877 1.1102230246251565e-15)" fill="none" stroke="cyan" stroke-width="0.1" />
<use xlink:href="#d34" x="0" y="0" transform="matrix(6.123233995736766e-17 1.0 1.0 -6.123233995736766e-17 5.632050807568877 1.1102230246251565e-15)" fill="none" stroke="cyan" stroke-width="0.1" />
<use xlink:href="#d35" x="0" y="0" transform="matrix(0.8660254037844387 0.49999999999999994 0.49999999999999994 -0.8660254037844387 4.76602540378444 -1.5)" fill="none" stroke="black" stroke-opacity="0.3" stroke-width="0.05" />
<use xlink:href="#d36" x="0" y="0" transform="matrix(0.8660254037844387 0.49999999999999994 0.49999999999999994 -0.8660254037844387 4.76602540378444 -1.5)" fill="none" stroke="black" stroke-opacity="0.3" stroke-width="0.05" />
<use xlink:href="#d37" x="0" y="0" transform="matrix(0.8660254037844387 0.49999999999999994 0.49999999999999994 -0.8660254037844387 4.76602540378444 -1.5)" fill="none" stroke="black" stroke-opacity="0.3" stroke-width="0.05" />
<use xlink:href="#d38" x="0" y="0" transform="matrix(0.8660254037844387 0.49999999999999994 0.49999999999999994 -0.8660254037844387 4.76602540378444 -1.5)" fill="none" stroke="black" stroke-width="0.05" />
<use xlink:href="#d39" x="0" y="0" transform="matrix(0.8660254037844387 0.49999999999999994 0.49999999999999994 -0.8660254037844387 4.76602540378444 -1.5)" fill="none" stroke="black" stroke-width="0.1" />
<use xlink:href="#d40" x="0" y="0" transform="matrix(0.8660254037844387 0.49999999999999994 0.49999999999999994 -0.8660254037844387 4.76602540378444 -1.5)" fill="none" stroke="cyan" stroke-width="0.1" />
<use xlink:href="#d41" x="0" y="0" transform="matrix(0.8660254037844387 0.49999999999999994 0.49999999999999994 -0.8660254037844387 4.76602540378444 -1.5)" fill="none" stroke="cyan" stroke-width="0.1" />
<use xlink:href="#d42" x="0" y="0" transform="matrix(-0.8660254037844387 -0.49999999999999994 -0.49999999999999994 0.8660254037844387 8.230127018922195 -6.003332099679081)" fill="none" stroke="black" stroke-opacity="0.3" stroke-width="0.05" />
<use xlink:href="#d43" x="0" y="0" transform="matrix(-0.8660254037844387 -0.49999999999999994 -0.49999999999999994 0.8660254037844387 8.230127018922195 -6.003332099679081)" fill="none" stroke="black" stroke-opacity="0.3" stroke-width="0.05" />
<use xlink:href="#d44" x="0" y="0" transform="matrix(-0.8660254037844387 -0.49999999999999994 -0.49999999999999994 0.8660254037844387 8.230127018922195 -6.003332099679081)" fill="none" stroke="black" stroke-opacity="0.3" stroke-width="0.05" />
<use xlink:href="#d45" x="0" y="0" transform="matrix(-0.8660254037844387 -0.49999999999999994 -0.49999999999999994 0.8660254037844387 8.230127018922195 -6.003332099679081)" fill="none" stroke="black" stroke-width="0.05" />
<use xlink:href="#d46" x="0" y="0" transform="matrix(-0.8660254037844387 -0.49999999999999994 -0.49999999999999994 0.8660254037844387 8.230127018922195 -6.003332099679081)" fill="none" stroke="black" stroke-width="0.1" />
<use xlink:href="#d47" x="0" y="0" transform="matrix(-0.8660254037844387 -0.49999999999999994 -0.49999999999999994 0.8660254037844387 8.230127018922195 -6.003332099679081)" fill="none" stroke="cyan" stroke-width="0.1" />
<use xlink:href="#d48" x="0" y="0" transform="matrix(-0.8660254037844387 -0.49999999999999994 -0.49999999999999994 0.8660254037844387 8.230127018922195 -6.003332099679081)" fill="none" stroke="cyan" stroke-width="0.1" />
<use xlink:href="#d49" x="0" y="0" transform="matrix(0.8660254037844387 -0.49999999999999994 -0.49999999999999994 -0.8660254037844387 3.033974596215562 -1.5000000000000002)" fill="none" stroke="black" stroke-opacity="0.3" stroke-width="0.05" />
<use xlink:href="#d50" x="0" y="0" transform="matrix(0.8660254037844387 -0.49999999999999994 -0.49999999999999994 -0.8660254037844387 3.033974596215562 -1.5000000000000002)" fill="none" stroke="black" stroke-opacity="0.3" stroke-width="0.05" />
<use xlink:href="#d51" x="0" y="0" transform="matrix(0.8660254037844387 -0.49999999999999994 -0.49999999999999994 -0.8660254037844387 3.033974596215562 -1.5000000000000002)" fill="none" stroke="black" stroke-opacity="0.3" stroke-width="0.05" />
<use xlink:href="#d52" x="0" y="0" transform="matrix(0.8660254037844387 -0.49999999999999994 -0.49999999999999994 -0.8660254037844387 3.033974596215562 -1.5000000000000002)" fill="none" stroke="black" stroke-width="0.05" />
<use xlink:href="#d53" x="0" y="0" transform="matrix(0.8660254037844387 -0.49999999999999994 -0.49999999999999994 -0.8660254037844387 3.033974596215562 -1.5000000000000002)" fill="none" stroke="black" stroke-width="0.1" />
<use xlink:href="#d54" x="0" y="0" transform="matrix(0.8660254037844387 -0.49999999999999994 -0.49999999999999994 -0.8660254037844387 3.033974596215562 -1.5000000000000002)" fill="none" stroke="cyan" stroke-width="0.1" />
<use xlink:href="#d55" x="0" y="0" transform="matrix(0.8660254037844387 -0.49999999999999994 -0.49999999999999994 -0.8660254037844387 3.033974596215562 -1.5000000000000002)" fill="none" stroke="cyan" stroke-width="0.1" />
<use xlink:href="#d56" x="0" y="0" transform="matrix(0.8660254037844387 -0.49999999999999994 -0.49999999999999994 -0.8660254037844387 1.9500000000000002 -4.12583302491977)" fill="none" stroke="black" stroke-opacity="0.3" stroke-width="0.05" />
<use xlink:href="#d57" x="0" y="0" transform="matrix(0.8660254037844387 -0.49999999999999994 -0.49999999999999994 -0.8660254037844387 1.9500000000000002 -4.12583302491977)" fill="none" stroke="black" stroke-opacity="0.3" stroke-width="0.05" />
<use xlink:href="#d58" x="0" y="0" transform="matrix(0.8660254037844387 -0.49999999999999994 -0.49999999999999994 -0.8660254037844387 1.9500000000000002 -4.12583302491977)" fill="none" stroke="black" stroke-opacity="0.3" stroke-width="0.05" />
<use xlink:href="#d59" x="0" y="0" transform="matrix(0.8660254037844387 -0.49999999999999994 -0.49999999999999994 -0.8660254037844387 1.9500000000000002 -4.12583302491977)" fill="none" stroke="black" stroke-width="0.05" />
<use xlink:href="#d60" x="0" y="0" transform="matrix(0.8660254037844387 -0.49999999999999994 -0.49999999999999994 -0.8660254037844387 1.9500000000000002 -4.12583302491977)" fill="none" stroke="black" stroke-width="0.1" />
<use xlink:href="#d61" x="0" y="0" transform="matrix(0.8660254037844387 -0.49999999999999994 -0.49999999999999994 -0.8660254037844387 1.9500000000000002 -4.12583302491977)" fill="none" stroke="cyan" stroke-width="0.1" />
<use xlink:href="#d62" x="0" y="0" transform="matrix(0.8660254037844387 -0.49999999999999994 -0.49999999999999994 -0.8660254037844387 1.9500000000000002 -4.12583302491977)" fill="none" stroke="cyan" stroke-width="0.1" />
<use xlink:href="#d63" x="0" y="0" transform="matrix(-1.8369701987210297e-16 -1.0 -1.0 1.8369701987210297e-16 1.0839745962155625 -2.6258330249197694)" fill="none" stroke="black" stroke-opacity="0.3" stroke-width="0.05" />
<use xlink:href="#d64" x="0" y="0" transform="matrix(-1.8369701987210297e-16 -1.0 -1.0 1.8369701987210297e-16 1.0839745962155625 -2.6258330249197694)" fill="none" stroke="black" stroke-opacity="0.3" stroke-width="0.05" />
<use xlink:href="#d65" x="0" y="0" transform="matrix(-1.8369701987210297e-16 -1.0 -1.0 1.8369701987210297e-16 1.0839745962155625 -2.6258330249197694)" fill="none" stroke="black" stroke-opacity="0.3" stroke-width="0.05" />
<use xlink:href="#d66" x="0" y="0" transform="matrix(-1.8369701987210297e-16 -1.0 -1.0 1.8369701987210297e-16 1.0839745962155625 -2.6258330249197694)" fill="none" stroke="black" stroke-width="0.05" />
<use xlink:href="#d67" x="0" y="0" transform="matrix(-1.8369701987210297e-16 -1.0 -1.0 1.8369701987210297e-16 1.0839745962155625 -2.6258330249197694)" fill="none" stroke="black" stroke-width="0.1" />
<use xlink:href="#d68" x="0" y="0" transform="matrix(-1.8369701987210297e-16 -1.0 -1.0 1.8369701987210297e-16 1.0839745962155625 -2.6258330249197694)" fill="none" stroke="cyan" stroke-width="0.1" />
<use xlink:href="#d69" x="0" y="0" transform="matrix(-1.8369701987210297e-16 -1.0 -1.0 1.8369701987210297e-16 1.0839745962155625 -2.6258330249197694)" fill="none" stroke="cyan" stroke-width="0.1" />
<use xlink:href="#d70" x="0" y="0" transform="matrix(6.123233995736766e-17 1.0 1.0 -6.123233995736766e-17 -4.548076211353314 -3.3741669750802306)" fill="none" stroke="black" stroke-opacity="0.3" stroke-width="0.05" />
<use xlink:href="#d71" x="0" y="0" transform="matrix(6.123233995736766e-17 1.0 1.0 -6.123233995736766e-17 -4.548076211353314 -3.3741669750802306)" fill="none" stroke="black" stroke-opacity="0.3" stroke-width="0.05" />
<use xlink:href="#d72" x="0" y="0" transform="matrix(6.123233995736766e-17 1.0 1.0 -6.123233995736766e-17 -4.548076211353314 -3.3741669750802306)" fill="none" stroke="black" stroke-opacity="0.3" stroke-width="0.05" />
<use xlink:href="#d73" x="0" y="0" transform="matrix(6.123233995736766e-17 1.0 1.0 -6.123233995736766e-17 -4.548076211353314 -3.3741669750802306)" fill="none" stroke="black" stroke-width="0.05" />
<use xlink:href="#d74" x="0" y="0" transform="matrix(6.123233995736766e-17 1.0 1.0 -6.123233995736766e-17 -4.548076211353314 -3.3741669750802306)" fill="none" stroke="black" stroke-width="0.1" />
<use xlink:href="#d75" x="0" y="0" transform="matrix(6.123233995736766e-17 1.0 1.0 -6.123233995736766e-17 -4.548076211353314 -3.3741669750802306)" fill="none" stroke="cyan" stroke-width="0.1" />
<use xlink:href="#d76" x="0" y="0" transform="matrix(6.123233995736766e-17 1.0 1.0 -6.123233995736766e-17 -4.548076211353314 -3.3741669750802306)" fill="none" stroke="cyan" stroke-width="0.1" />
<use xlink:href="#d77" x="0" y="0" transform="matrix(0.8660254037844387 0.49999999999999994 0.49999999999999994 -0.8660254037844387 -2.598076211353316 0.75166604983954)" fill="none" stroke="black" stroke-opacity="0.3" stroke-width="0.05" />
<use xlink:href="#d78" x="0" y="0" transform="matrix(0.8660254037844387 0.49999999999999994 0.49999999999999994 -0.8660254037844387 -2.598076211353316 0.75166604983954)" fill="none" stroke="black" stroke-opacity="0.3" stroke-width="0.05" />
<use xlink:href="#d79" x="0" y="0" transform="matrix(0.8660254037844387 0.49999999999999994 0.49999999999999994 -0.8660254037844387 -2.598076211353316 0.75166604983954)" fill="none" stroke="black" stroke-opacity="0.3" stroke-width="0.05" />
<use xlink:href="#d80" x="0" y="0" transform="matrix(0.8660254037844387 0.49999999999999994 0.49999999999999994 -0.8660254037844387 -2.598076211353316 0.75166604983954)" fill="none" stroke="black" stroke-width="0.05" />
<use xlink:href="#d81" x="0" y="0" transform="matrix(0.8660254037844387 0.49999999999999994 0.49999999999999994 -0.8660254037844387 -2.598076211353316 0.75166604983954)" fill="none" stroke="black" stroke-width="0.1" />
<use xlink:href="#d82" x="0" y="0" transform="matrix(0.8660254037844387 0.49999999999999994 0.49999999999999994 -0.8660254037844387 -2.598076211353316 0.75166604983954)" fill="none" stroke="cyan" stroke-width="0.1" />
<use xlink:href="#d83" x="0" y="0" transform="matrix(0.8660254037844387 0.49999999999999994 0.49999999999999994 -0.8660254037844387 -2.598076211353316 0.75166604983954)" fill="none" stroke="cyan" stroke-width="0.1" />
<use xlink:href="#d84" x="0" y="0" transform="matrix(0.8660254037844387 0.49999999999999994 0.49999999999999994 -0.8660254037844387 -4.330127018922194 3.0033320996790804)" fill="none" stroke="black" stroke-opacity="0.3" stroke-width="0.05" />
<use xlink:href="#d85" x="0" y="0" transform="matrix(0.8660254037844387 0.49999999999999994 0.49999999999999994 -0.8660254037844387 -4.330127018922194 3.0033320996790804)" fill="none" stroke="black" stroke-opacity="0.3" stroke-width="0.05" />
<use xlink:href="#d86" x="0" y="0" transform="matrix(0.8660254037844387 0.49999999999999994 0.49999999999999994 -0.8660254037844387 -4.330127018922194 3.0033320996790804)" fill="none" stroke="black" stroke-opacity="0.3" stroke-width="0.05" />
<use xlink:href="#d87" x="0" y="0" transform="matrix(0.8660254037844387 0.49999999999999994 0.49999999999999994 -0.8660254037844387 -4.330127018922194 3.0033320996790804)" fill="none" stroke="black" stroke-width="0.05" />
<use xlink:href="#d88" x="0" y="0" transform="matrix(0.8660254037844387 0.49999999999999994 0.49999999999999994 -0.8660254037844387 -4.330127018922194 3.0033320996790804)" fill="none" stroke="black" stroke-width="0.1" />
<use xlink:href="#d89" x="0" y="0" transform="matrix(0.8660254037844387 0.49999999999999994 0.49999999999999994 -0.8660254037844387 -4.330127018922194 3.0033320996790804)" fill="none" stroke="cyan" stroke-width="0.1" />
<use xlink:href="#d90" x="0" y="0" transform="matrix(0.8660254037844387 0.49999999999999994 0.49999999999999994 -0.8660254037844387 -4.330127018922194 3.0033320996790804)" fill="none" stroke="cyan" stroke-width="0.1" />
<circle cx="-1.732050807568876" cy="-3.000000000000001" r="0.25" fill="rgb(0, 255, 0)" />
<circle cx="6.498076211353317" cy="-3.7516660498395407" r="0.25" fill="rgb(0, 255, 0)" />
<circle cx="3.03397459621556" cy="3.7516660498395407" r="0.25" fill="rgb(0, 255, 0)" />
<circle cx="2.6000000000000005" cy="-1.0000000000000002" r="0.1" fill="rgb(0, 255, 0)" />
</svg>