<?xml version="1.0" encoding="UTF-8"?>
<svg xmlns="http://www.w3.org/2000/svg" xmlns:xlink="http://www.w3.org/1999/xlink"
     width="50" height="50" viewBox="-25.0 -25.0 50 50">
<defs>
<path d="M0,0 L1.3,0.0 L1.9500000000000002,-1.12583302491977 L2.816025403784439,-0.6258330249197701 L2.816025403784439,0.3741669750802299 L4.116025403784439,0.3741669750802299 L4.76602540378444,1.5 L3.900000000000001,2.0 L3.033974596215562,1.5000000000000002 L2.3839745962155625,2.6258330249197703 L1.0839745962155625,2.6258330249197703 L-0.21602540378443758,2.6258330249197703 L-0.8660254037844382,1.5000000000000002 L2.220446049250313e-16,0.9999999999999998 L3.834758505292834e-17,-2.220446049250313e-16 Z" id="d0" />
<path d="M0,0 L2.816025403784439,0.3741669750802299 L1.0839745962155625,2.6258330249197703 Z" id="d1" />
<path d="M2.080076951545868,1.8150999629903724 L2.1578460969082656,1.2298000740192552 L1.612076951545868,1.4550999629903725" id="d2" />
<path d="M0,0 L1.0,0.0 L1.5,-0.8660254037844386 L2.6258330249197703,-0.21602540378443869 L2.6258330249197703,1.0839745962155614 L3.6258330249197703,1.0839745962155614 L4.12583302491977,1.95 L3.0,2.5999999999999996 L1.8741669750802294,1.95 L1.3741669750802297,2.8160254037844386 L0.37416697508022967,2.8160254037844386 L-0.6258330249197703,2.8160254037844386 L-1.1258330249197708,1.9500000000000002 L-8.881784197001252e-16,1.2999999999999996 L-1.126984545533859e-15,-4.440892098500626e-16 Z" id="d3" />
<path d="M0,0 L2.6258330249197703,1.0839745962155614 L0.37416697508022967,2.8160254037844386 Z" id="d4" />
<path d="M1.5449000370096275,2.2879230484541324 L1.7701999259807448,1.7421539030917348 L1.1849000370096276,1.8199230484541324" id="d5" />
<path d="M0,0 L1.0,0.0 L1.5,-0.8660254037844386 L2.6258330249197703,-0.21602540378443869 L2.6258330249197703,1.0839745962155614 L3.6258330249197703,1.0839745962155614 L4.12583302491977,1.95 L3.0,2.5999999999999996 L1.8741669750802294,1.95 L1.3741669750802297,2.8160254037844386 L0.37416697508022967,2.8160254037844386 L-0.6258330249197703,2.8160254037844386 L-1.1258330249197708,1.9500000000000002 L-8.881784197001252e-16,1.2999999999999996 L-1.126984545533859e-15,-4.440892098500626e-16 Z" id="d6" />
<path d="M0,0 L2.6258330249197703,1.0839745962155614 L0.37416697508022967,2.8160254037844386 Z" id="d7" />
<path d="M1.5449000370096275,2.2879230484541324 L1.7701999259807448,1.7421539030917348 L1.1849000370096276,1.8199230484541324" id="d8" />
<path d="M0,0 L1.0,0.0 L1.5,-0.8660254037844386 L2.6258330249197703,-0.21602540378443869 L2.6258330249197703,1.0839745962155614 L3.6258330249197703,1.0839745962155614 L4.12583302491977,1.95 L3.0,2.5999999999999996 L1.8741669750802294,1.95 L1.3741669750802297,2.8160254037844386 L0.37416697508022967,2.8160254037844386 L-0.6258330249197703,2.8160254037844386 L-1.1258330249197708,1.9500000000000002 L-8.881784197001252e-16,1.2999999999999996 L-1.126984545533859e-15,-4.440892098500626e-16 Z" id="d9" />
<path d="M0,0 L2.6258330249197703,1.0839745962155614 L0.37416697508022967,2.8160254037844386 Z" id="d10" />
<path d="M1.5449000370096275,2.2879230484541324 L1.7701999259807448,1.7421539030917348 L1.1849000370096276,1.8199230484541324" id="d11" />
<path d="M0,0 L1.0,0.0 L1.5,-0.8660254037844386 L2.6258330249197703,-0.21602540378443869 L2.6258330249197703,1.0839745962155614 L3.6258330249197703,1.0839745962155614 L4.12583302491977,1.95 L3.0,2.5999999999999996 L1.8741669750802294,1.95 L1.3741669750802297,2.8160254037844386 L0.37416697508022967,2.8160254037844386 L-0.6258330249197703,2.8160254037844386 L-1.1258330249197708,1.9500000000000002 L-8.881784197001252e-16,1.2999999999999996 L-1.126984545533859e-15,-4.440892098500626e-16 Z" id="d12" />
<path d="M0,0 L2.6258330249197703,1.0839745962155614 L0.37416697508022967,2.8160254037844386 Z" id="d13" />
<path d="M1.5449000370096275,2.2879230484541324 L1.7701999259807448,1.7421539030917348 L1.1849000370096276,1.8199230484541324" id="d14" />
<path d="M0,0 L1.0,0.0 L1.5,-0.8660254037844386 L2.6258330249197703,-0.21602540378443869 L2.6258330249197703,1.0839745962155614 L3.6258330249197703,1.0839745962155614 L4.12583302491977,1.95 L3.0,2.5999999999999996 L1.8741669750802294,1.95 L1.3741669750802297,2.8160254037844386 L0.37416697508022967,2.8160254037844386 L-0.6258330249197703,2.8160254037844386 L-1.1258330249197708,1.9500000000000002 L-8.881784197001252e-16,1.2999999999999996 L-1.126984545533859e-15,-4.440892098500626e-16 Z" id="d15" />
<path d="M0,0 L2.6258330249197703,1.0839745962155614 L0.37416697508022967,2.8160254037844386 Z" id="d16" />
<path d="M1.5449000370096275,2.2879230484541324 L1.7701999259807448,1.7421539030917348 L1.1849000370096276,1.8199230484541324" id="d17" />
<path d="M0,0 L1.0,0.0 L1.5,-0.8660254037844386 L2.6258330249197703,-0.21602540378443869 L2.6258330249197703,1.0839745962155614 L3.6258330249197703,1.0839745962155614 L4.12583302491977,1.95 L3.0,2.5999999999999996 L1.8741669750802294,1.95 L1.3741669750802297,2.8160254037844386 L0.37416697508022967,2.8160254037844386 L-0.6258330249197703,2.8160254037844386 L-1.1258330249197708,1.9500000000000002 L-8.881784197001252e-16,1.2999999999999996 L-1.126984545533859e-15,-4.440892098500626e-16 Z" id="d18" />
<path d="M0,0 L2.6258330249197703,1.0839745962155614 L0.37416697508022967,2.8160254037844386 Z" id="d19" />
<path d="M1.5449000370096275,2.2879230484541324 L1.7701999259807448,1.7421539030917348 L1.1849000370096276,1.8199230484541324" id="d20" />
<path d="M0,0 L1.0,0.0 L1.5,-0.8660254037844386 L2.6258330249197703,-0.21602540378443869 L2.6258330249197703,1.0839745962155614 L3.6258330249197703,1.0839745962155614 L4.12583302491977,1.95 L3.0,2.5999999999999996 L1.8741669750802294,1.95 L1.3741669750802297,2.8160254037844386 L0.37416697508022967,2.8160254037844386 L-0.6258330249197703,2.8160254037844386 L-1.1258330249197708,1.9500000000000002 L-8.881784197001252e-16,1.2999999999999996 L-1.126984545533859e-15,-4.440892098500626e-16 Z" id="d21" />
<path d="M0,0 L2.6258330249197703,1.0839745962155614 L0.37416697508022967,2.8160254037844386 Z" id="d22" />
<path d="M1.5449000370096275,2.2879230484541324 L1.7701999259807448,1.7421539030917348 L1.1849000370096276,1.8199230484541324" id="d23" />
<path d="M0,0 L1.0,0.0 L1.5,-0.8660254037844386 L2.6258330249197703,-0.21602540378443869 L2.6258330249197703,1.0839745962155614 L3.6258330249197703,1.0839745962155614 L4.12583302491977,1.95 L3.0,2.5999999999999996 L1.8741669750802294,1.95 L1.3741669750802297,2.8160254037844386 L0.37416697508022967,2.8160254037844386 L-0.6258330249197703,2.8160254037844386 L-1.1258330249197708,1.9500000000000002 L-8.881784197001252e-16,1.2999999999999996 L-1.126984545533859e-15,-4.440892098500626e-16 Z" id="d24" />
<path d="M0,0 L2.6258330249197703,1.0839745962155614 L0.37416697508022967,2.8160254037844386 Z" id="d25" />
<path d="M1.5449000370096275,2.2879230484541324 L1.7701999259807448,1.7421539030917348 L1.1849000370096276,1.8199230484541324" id="d26" />
<path d="M0,0 L1.0,0.0 L1.5,-0.8660254037844386 L2.6258330249197703,-0.21602540378443869 L2.6258330249197703,1.0839745962155614 L3.6258330249197703,1.0839745962155614 L4.12583302491977,1.95 L3.0,2.5999999999999996 L1.8741669750802294,1.95 L1.3741669750802297,2.8160254037844386 L0.37416697508022967,2.8160254037844386 L-0.6258330249197703,2.8160254037844386 L-1.1258330249197708,1.9500000000000002 L-8.881784197001252e-16,1.2999999999999996 L-1.126984545533859e-15,-4.440892098500626e-16 Z" id="d27" />
<path d="M0,0 L2.6258330249197703,1.0839745962155614 L0.37416697508022967,2.8160254037844386 Z" id="d28" />
<path d="M1.5449000370096275,2.2879230484541324 L1.7701999259807448,1.7421539030917348 L1.1849000370096276,1.8199230484541324" id="d29" />
<path d="M0,0 L1.0,0.0 L1.5,-0.8660254037844386 L2.6258330249197703,-0.21602540378443869 L2.6258330249197703,1.0839745962155614 L3.6258330249197703,1.0839745962155614 L4.12583302491977,1.95 L3.0,2.5999999999999996 L1.8741669750802294,1.95 L1.3741669750802297,2.8160254037844386 L0.37416697508022967,2.8160254037844386 L-0.6258330249197703,2.8160254037844386 L-1.1258330249197708,1.9500000000000002 L-8.881784197001252e-16,1.2999999999999996 L-1.126984545533859e-15,-4.440892098500626e-16 Z" id="d30" />
<path d="M0,0 L2.6258330249197703,1.0839745962155614 L0.37416697508022967,2.8160254037844386 Z" id="d31" />
<path d="M1.5449000370096275,2.2879230484541324 L1.7701999259807448,1.7421539030917348 L1.1849000370096276,1.8199230484541324" id="d32" />
<path d="M0,0 L1.0,0.0 L1.5,-0.8660254037844386 L2.6258330249197703,-0.21602540378443869 L2.6258330249197703,1.0839745962155614 L3.6258330249197703,1.0839745962155614 L4.12583302491977,1.95 L3.0,2.5999999999999996 L1.8741669750802294,1.95 L1.3741669750802297,2.8160254037844386 L0.37416697508022967,2.8160254037844386 L-0.6258330249197703,2.8160254037844386 L-1.1258330249197708,1.9500000000000002 L-8.881784197001252e-16,1.2999999999999996 L-1.126984545533859e-15,-4.440892098500626e-16 Z" id="d33" />
<path d="M0,0 L2.6258330249197703,1.0839745962155614 L0.37416697508022967,2.8160254037844386 Z" id="d34" />
<path d="M1.5449000370096275,2.2879230484541324 L1.7701999259807448,1.7421539030917348 L1.1849000370096276,1.8199230484541324" id="d35" />
<path d="M0,0 L1.0,0.0 L1.5,-0.8660254037844386 L2.6258330249197703,-0.21602540378443869 L2.6258330249197703,1.0839745962155614 L3.6258330249197703,1.0839745962155614 L4.12583302491977,1.95 L3.0,2.5999999999999996 L1.8741669750802294,1.95 L1.3741669750802297,2.8160254037844386 L0.37416697508022967,2.8160254037844386 L-0.6258330249197703,2.8160254037844386 L-1.1258330249197708,1.9500000000000002 L-8.881784197001252e-16,1.2999999999999996 L-1.126984545533859e-15,-4.440892098500626e-16 Z" id="d36" />
<path d="M0,0 L2.6258330249197703,1.0839745962155614 L0.37416697508022967,2.8160254037844386 Z" id="d37" />
<path d="M1.5449000370096275,2.2879230484541324 L1.7701999259807448,1.7421539030917348 L1.1849000370096276,1.8199230484541324" id="d38" />
</defs>
<use xlink:href="#d0" x="0" y="0" transform="matrix(1 0 0 -1 0 0)" fill="none" stroke="black" stroke-width="0.1" />
<use xlink:href="#d1" x="0" y="0" transform="matrix(1 0 0 -1 0 0)" fill="none" stroke="magenta" stroke-width="0.1" />
<use xlink:href="#d2" x="0" y="0" transform="matrix(1 0 0 -1 0 0)" fill="none" stroke="magenta" stroke-width="0.1" />
<use xlink:href="#d3" x="0" y="0" transform="matrix(-0.8660254037844385 0.5000000000000003 0.5000000000000003 0.8660254037844385 1.9500000000000002 1.12583302491977)" fill="none" stroke="black" stroke-width="0.1" />
<use xlink:href="#d4" x="0" y="0" transform="matrix(-0.8660254037844385 0.5000000000000003 0.5000000000000003 0.8660254037844385 1.9500000000000002 1.12583302491977)" fill="none" stroke="cyan" stroke-width="0.1" />
<use xlink:href="#d5" x="0" y="0" transform="matrix(-0.8660254037844385 0.5000000000000003 0.5000000000000003 0.8660254037844385 1.9500000000000002 1.12583302491977)" fill="none" stroke="cyan" stroke-width="0.1" />
<use xlink:href="#d6" x="0" y="0" transform="matrix(0.8660254037844385 -0.5000000000000002 -0.5000000000000002 -0.8660254037844385 4.11794919243112 6.377499074759312)" fill="none" stroke="black" stroke-width="0.1" />
<use xlink:href="#d7" x="0" y="0" transform="matrix(0.8660254037844385 -0.5000000000000002 -0.5000000000000002 -0.8660254037844385 4.11794919243112 6.377499074759312)" fill="none" stroke="cyan" stroke-width="0.1" />
<use xlink:href="#d8" x="0" y="0" transform="matrix(0.8660254037844385 -0.5000000000000002 -0.5000000000000002 -0.8660254037844385 4.11794919243112 6.377499074759312)" fill="none" stroke="cyan" stroke-width="0.1" />
<use xlink:href="#d9" x="0" y="0" transform="matrix(6.123233995736766e-17 1.0 1.0 -6.123233995736766e-17 2.8160254037844386 -0.3741669750802288)" fill="none" stroke="black" stroke-width="0.1" />
<use xlink:href="#d10" x="0" y="0" transform="matrix(6.123233995736766e-17 1.0 1.0 -6.123233995736766e-17 2.8160254037844386 -0.3741669750802288)" fill="none" stroke="cyan" stroke-width="0.1" />
<use xlink:href="#d11" x="0" y="0" transform="matrix(6.123233995736766e-17 1.0 1.0 -6.123233995736766e-17 2.8160254037844386 -0.3741669750802288)" fill="none" stroke="cyan" stroke-width="0.1" />
<use xlink:href="#d12" x="0" y="0" transform="matrix(6.123233995736766e-17 1.0 1.0 -6.123233995736766e-17 5.632050807568877 1.1102230246251565e-15)" fill="none" stroke="black" stroke-width="0.1" />
<use xlink:href="#d13" x="0" y="0" transform="matrix(6.123233995736766e-17 1.0 1.0 -6.123233995736766e-17 5.632050807568877 1.1102230246251565e-15)" fill="none" stroke="cyan" stroke-width="0.1" />
<use xlink:href="#d14" x="0" y="0" transform="matrix(6.123233995736766e-17 1.0 1.0 -6.123233995736766e-17 5.632050807568877 1.1102230246251565e-15)" fill="none" stroke="cyan" stroke-width="0.1" />
<use xlink:href="#d15" x="0" y="0" transform="matrix(0.8660254037844387 0.49999999999999994 0.49999999999999994 -0.8660254037844387 4.76602540378444 -1.5)" fill="none" stroke="black" stroke-width="0.1" />
<use xlink:href="#d16" x="0" y="0" transform="matrix(0.8660254037844387 0.49999999999999994 0.49999999999999994 -0.8660254037844387 4.76602540378444 -1.5)" fill="none" stroke="cyan" stroke-width="0.1" />
<use xlink:href="#d17" x="0" y="0" transform="matrix(0.8660254037844387 0.49999999999999994 0.49999999999999994 -0.8660254037844387 4.76602540378444 -1.5)" fill="none" stroke="cyan" stroke-width="0.1" />
<use xlink:href="#d18" x="0" y="0" transform="matrix(-0.8660254037844387 -0.49999999999999994 -0.49999999999999994 0.8660254037844387 8.230127018922195 -6.003332099679081)" fill="none" stroke="black" stroke-width="0.1" />
<use xlink:href="#d19" x="0" y="0" transform="matrix(-0.8660254037844387 -0.49999999999999994 -0.49999999999999994 0.8660254037844387 8.230127018922195 -6.003332099679081)" fill="none" stroke="cyan" stroke-width="0.1" />
<use xlink:href="#d20" x="0" y="0" transform="matrix(-0.8660254037844387 -0.49999999999999994 -0.49999999999999994 0.8660254037844387 8.230127018922195 -6.003332099679081)" fill="none" stroke="cyan" stroke-width="0.1" />
<use xlink:href="#d21" x="0" y="0" transform="matrix(0.8660254037844387 -0.49999999999999994 -0.49999999999999994 -0.8660254037844387 3.033974596215562 -1.5000000000000002)" fill="none" stroke="black" stroke-width="0.1" />
<use xlink:href="#d22" x="0" y="0" transform="matrix(0.8660254037844387 -0.49999999999999994 -0.49999999999999994 -0.8660254037844387 3.033974596215562 -1.5000000000000002)" fill="none" stroke="cyan" stroke-width="0.1" />
<use xlink:href="#d23" x="0" y="0" transform="matrix(0.8660254037844387 -0.49999999999999994 -0.49999999999999994 -0.8660254037844387 3.033974596215562 -1.5000000000000002)" fill="none" stroke="cyan" stroke-width="0.1" />
<use xlink:href="#d24" x="0" y="0" transform="matrix(0.8660254037844387 -0.49999999999999994 -0.49999999999999994 -0.8660254037844387 1.9500000000000002 -4.12583302491977)" fill="none" stroke="black" stroke-width="0.1" />
<use xlink:href="#d25" x="0" y="0" transform="matrix(0.8660254037844387 -0.49999999999999994 -0.49999999999999994 -0.8660254037844387 1.9500000000000002 -4.12583302491977)" fill="none" stroke="cyan" stroke-width="0.1" />
<use xlink:href="#d26" x="0" y="0" transform="matrix(0.8660254037844387 -0.49999999999999994 -0.49999999999999994 -0.8660254037844387 1.9500000000000002 -4.12583302491977)" fill="none" stroke="cyan" stroke-width="0.1" />
<use xlink:href="#d27" x="0" y="0" transform="matrix(-1.8369701987210297e-16 -1.0 -1.0 1.8369701987210297e-16 1.0839745962155625 -2.6258330249197694)" fill="none" stroke="black" stroke-width="0.1" />
<use xlink:href="#d28" x="0" y="0" transform="matrix(-1.8369701987210297e-16 -1.0 -1.0 1.8369701987210297e-16 1.0839745962155625 -2.6258330249197694)" fill="none" stroke="cyan" stroke-width="0.1" />
<use xlink:href="#d29" x="0" y="0" transform="matrix(-1.8369701987210297e-16 -1.0 -1.0 1.8369701987210297e-16 1.0839745962155625 -2.6258330249197694)" fill="none" stroke="cyan" stroke-width="0.1" />
<use xlink:href="#d30" x="0" y="0" transform="matrix(6.123233995736766e-17 1.0 1.0 -6.123233995736766e-17 -4.548076211353314 -3.3741669750802306)" fill="none" stroke="black" stroke-width="0.1" />
<use xlink:href="#d31" x="0" y="0" transform="matrix(6.123233995736766e-17 1.0 1.0 -6.123233995736766e-17 -4.548076211353314 -3.3741669750802306)" fill="none" stroke="cyan" stroke-width="0.1" />
<use xlink:href="#d32" x="0" y="0" transform="matrix(6.123233995736766e-17 1.0 1.0 -6.123233995736766e-17 -4.548076211353314 -3.3741669750802306)" fill="none" stroke="cyan" stroke-width="0.1" />
<use xlink:href="#d33" x="0" y="0" transform="matrix(0.8660254037844387 0.49999999999999994 0.49999999999999994 -0.8660254037844387 -2.598076211353316 0.75166604983954)" fill="none" stroke="black" stroke-width="0.1" />
<use xlink:href="#d34" x="0" y="0" transform="matrix(0.8660254037844387 0.49999999999999994 0.49999999999999994 -0.8660254037844387 -2.598076211353316 0.75166604983954)" fill="none" stroke="cyan" stroke-width="0.1" />
<use xlink:href="#d35" x="0" y="0" transform="matrix(0.8660254037844387 0.49999999999999994 0.49999999999999994 -0.8660254037844387 -2.598076211353316 0.75166604983954)" fill="none" stroke="cyan" stroke-width="0.1" />
<use xlink:href="#d36" x="0" y="0" transform="matrix(0.8660254037844387 0.49999999999999994 0.49999999999999994 -0.8660254037844387 -4.330127018922194 3.0033320996790804)" fill="none" stroke="black" stroke-width="0.1" />
<use xlink:href="#d37" x="0" y="0" transform="matrix(0.8660254037844387 0.49999999999999994 0.49999999999999994 -0.8660254037844387 -4.330127018922194 3.0033320996790804)" fill="none" stroke="cyan" stroke-width="0.1" />
<use xlink:href="#d38" x="0" y="0" transform="matrix(0.8660254037844387 0.49999999999999994 0.49999999999999994 -0.8660254037844387 -4.330127018922194 3.0033320996790804)" fill="none" stroke="cyan" stroke-width="0.1" />
<circle cx="-1.732050807568876" cy="-3.000000000000001" r="0.25" fill="rgb(0, 255, 0)" />
<circle cx="6.498076211353317" cy="-3.7516660498395407" r="0.25" fill="rgb(0, 255, 0)" />
<circle cx="3.03397459621556" cy="3.7516660498395407" r="0.25" fill="rgb(0, 255, 0)" />
<circle cx="2.6000000000000005" cy="-1.0000000000000002" r="0.1" fill="rgb(0, 255, 0)" />
</svg>